<svg id="Layer_1" data-name="Layer 1" xmlns="http://www.w3.org/2000/svg" viewBox="0 0 414 522"><defs><style>.cls-1{fill:#ffecef;}.cls-2{fill:#ff4361;}</style></defs><circle class="cls-1" cx="207" cy="261" r="177"/><path class="cls-2" d="M84.28,265.77c.38,0,.48-.33.57-.65,2.31-8.51,12.16-15,24.13-9.15a20.34,20.34,0,0,1-8.65,38.54c-2.15.05-4.32-.14-6.46.05-4.46.41-7.69-1.2-9.59-5.3Z"/><path class="cls-2" d="M329.72,289.26c-1.9,4.15-5.18,5.68-9.64,5.3-3.26-.28-6.54.19-9.8-.43-10.33-2-17.76-12-16.41-22.26a20.5,20.5,0,0,1,21.44-18.05,15.69,15.69,0,0,1,13.92,11.68c.11.42-.1,1,.49,1.23Z"/><path class="cls-2" d="M187.11,234.61c13.34,0,26.12,0,38.91,0a3.29,3.29,0,0,1,2.65,1.22Q246,254.3,271.41,253.73a53,53,0,0,0,14.12-2.38c.74-.23,1.45-.73,2.34-.36,0,.88-.76,1.3-1.2,1.9-8.28,11.38-9.87,23.68-3.75,36.31s16.71,19.1,30.77,19.69c3,.13,6.08.05,9.11,0,1.11,0,1.69.08,1.68,1.5-.06,15.5,0,31-.06,46.5a7,7,0,0,1-6.94,7.11c-6,.11-12,0-18,.08-1.79,0-1.41-1-1.41-2,0-12,0-24,0-35.95,0-5.57-5.12-9.2-10-7.05a7.12,7.12,0,0,0-4.42,7.05c0,11.82,0,23.64.06,35.47,0,1.94-.38,2.49-2.42,2.48q-32.35-.13-64.72,0c-2,0-2.48-.4-2.47-2.43.08-23.25,0-46.5.07-69.75.09-22.89-8.46-41.71-26.1-56.36C187.89,235.36,187.69,235.15,187.11,234.61Z"/><path class="cls-2" d="M126.2,250.77c2.21.56,4.41,1.18,6.65,1.67a53.86,53.86,0,0,0,41.08-7.14c1.3-.8,2.13-1,3.47.07,14.2,11,22,25.36,22.3,43.3.36,24.51.09,49,.14,73.55,0,1.46-.31,1.86-1.82,1.85q-32.94-.07-65.89,0c-1.74,0-1.86-.65-1.86-2.05q.07-18,0-35.94c0-5.55-5.2-9.17-10-7a7.17,7.17,0,0,0-4.37,7.08c0,11.9,0,23.8.06,35.7,0,1.81-.44,2.25-2.22,2.2-5.43-.13-10.86,0-16.29-.05-4.95,0-7.9-2.94-7.9-7.88,0-15,0-30,0-45,0-1.72.3-2.28,2.17-2.26,5.65.09,11.33.43,16.91-1a34.79,34.79,0,0,0,18.74-54.9c-.43-.56-.87-1.11-1.31-1.66Z"/><path class="cls-2" d="M144.71,157.91a40.75,40.75,0,1,1-40.77,40.59A40.81,40.81,0,0,1,144.71,157.91Z"/><path class="cls-2" d="M310.06,198.74a40.75,40.75,0,1,1-40.53-40.83A40.82,40.82,0,0,1,310.06,198.74Z"/></svg>