<svg xmlns="http://www.w3.org/2000/svg" viewBox="0 0 414 522"><defs><style>.cls-1{isolation:isolate;}.cls-2{fill:#fff6d3;}.cls-3{fill:#ffe370;}.cls-4,.cls-8{mix-blend-mode:multiply;}.cls-4{opacity:0.75;}.cls-5{fill:#9f6f00;}.cls-6{fill:#fce679;}.cls-7{fill:#f9e882;}.cls-8{opacity:0.67;}</style></defs><g class="cls-1"><g id="Layer_1" data-name="Layer 1"><circle class="cls-2" cx="207" cy="261" r="177"/><polygon class="cls-3" points="207 138.76 101.14 199.88 101.14 322.12 207 383.24 312.86 322.12 312.86 199.88 207 138.76"/><g class="cls-4"><path class="cls-5" d="M214,145.76,108.14,206.88V329.12L214,390.24l105.86-61.12V206.88Zm96.83,178.15L214,379.81l-96.83-55.9V212.09L214,156.19l96.83,55.9Z"/></g><path class="cls-6" d="M207,138.76,101.14,199.88V322.12L207,383.24l105.86-61.12V199.88Zm96.83,178.15L207,372.81l-96.83-55.9V205.09L207,149.19l96.83,55.9Z"/><g class="cls-4"><path class="cls-5" d="M214,173l-82.28,47.5v95L214,363l82.28-47.5v-95Zm75.26,138.46L214,354.91l-75.26-43.46v-86.9L214,181.09l75.26,43.46Z"/></g><path class="cls-7" d="M207,166l-82.28,47.5v95L207,356l82.28-47.5v-95Zm75.26,138.46L207,347.91l-75.26-43.46v-86.9L207,174.09l75.26,43.46Z"/><g class="cls-8"><path class="cls-5" d="M154.47,307V233h9.41l18,42.22V233H193v74h-8.95L166,262.78V307Z"/><path class="cls-5" d="M204.27,307V233h30.44v9.32H217.8v21.57h13.8v9.41H217.8V307Z"/><path class="cls-5" d="M249.42,307V243H237.63V233h36.92v10H262.94V307Z"/></g><path d="M149.47,299V225h9.41l18,42.22V225H188v74h-8.95L161,254.78V299Z"/><path d="M199.27,299V225h30.44v9.32H212.8v21.57h13.8v9.41H212.8V299Z"/><path d="M244.42,299V235H232.63V225h36.92v10H257.94V299Z"/></g></g></svg>