<svg id="Layer_1" data-name="Layer 1" xmlns="http://www.w3.org/2000/svg" viewBox="0 0 414 522"><defs><style>.cls-1{fill:#e4ffee;}.cls-2{fill:#519c62;}.cls-3{fill:#fff;}</style></defs><circle class="cls-1" cx="207" cy="261" r="177"/><path class="cls-2" d="M126,340a113.51,113.51,0,0,0,61.92,32.6,145.83,145.83,0,0,1-36-47.49A136.43,136.43,0,0,0,126,340Z"/><path class="cls-2" d="M120.21,333.58a145.68,145.68,0,0,1,28.23-16.35,148,148,0,0,1-10.61-47.93l-43.71,0A112.09,112.09,0,0,0,120.21,333.58Z"/><path class="cls-2" d="M202.71,304.76V269.28l-56.3,0a139.41,139.41,0,0,0,10,44.7A151.16,151.16,0,0,1,202.71,304.76Z"/><path class="cls-2" d="M202.71,373.49V313.33a141.68,141.68,0,0,0-42.88,8.53A140.24,140.24,0,0,0,202.71,373.49Z"/><path class="cls-2" d="M149.13,203.1a147.54,147.54,0,0,1,38.79-53.66,113.16,113.16,0,0,0-65.87,36.84A139.39,139.39,0,0,0,149.13,203.1Z"/><path class="cls-2" d="M202.71,260.7V224.86a147.73,147.73,0,0,1-48.8-10.35,141.68,141.68,0,0,0-7.78,46.24Z"/><path class="cls-2" d="M137.56,260.75A150.12,150.12,0,0,1,146,211.1a148,148,0,0,1-29.38-18.18A112,112,0,0,0,93.8,260.77Z"/><path class="cls-2" d="M224.49,372.82a113.09,113.09,0,0,0,65-34.35,136.88,136.88,0,0,0-27.78-15.1A145.76,145.76,0,0,1,224.49,372.82Z"/><path class="cls-2" d="M295.11,332a112.11,112.11,0,0,0,24.78-62.77l-45,0A148.61,148.61,0,0,1,265,315.47,145.7,145.7,0,0,1,295.11,332Z"/><path class="cls-2" d="M275.15,260.68l45.05,0a112.1,112.1,0,0,0-21.55-66A148.1,148.1,0,0,1,267.3,213,150.39,150.39,0,0,1,275.15,260.68Z"/><path class="cls-2" d="M202.71,216.28V148.51a139.41,139.41,0,0,0-45.71,58A139.17,139.17,0,0,0,202.71,216.28Z"/><path class="cls-2" d="M211.28,216.39a139.29,139.29,0,0,0,45.09-8.31,139.13,139.13,0,0,0-45.09-58.6Z"/><path class="cls-2" d="M264.34,204.91a140.15,140.15,0,0,0,29-17,112.61,112.61,0,0,0-68.89-38.74A147.44,147.44,0,0,1,264.34,204.91Z"/><path class="cls-2" d="M211.28,260.7l55.29,0a141.3,141.3,0,0,0-7.25-44.57,147.75,147.75,0,0,1-48,8.86Z"/><path class="cls-2" d="M253.59,320.41a141.62,141.62,0,0,0-42.31-7.19v59.29A139.77,139.77,0,0,0,253.59,320.41Z"/><path class="cls-2" d="M256.93,312.51a140.39,140.39,0,0,0,9.38-43.28l-55,0v35.38A150.47,150.47,0,0,1,256.93,312.51Z"/><rect class="cls-3" x="108.93" y="229.17" width="196.13" height="63.65" rx="20.1"/><path d="M167.56,246.21a2,2,0,0,1,1.14-.33,2.1,2.1,0,0,1,1.41.52,1.73,1.73,0,0,1,.61,1.37,2.15,2.15,0,0,1-.17.85l-9.32,26.07a2.29,2.29,0,0,1-.93,1.1,2.69,2.69,0,0,1-1.39.38,2.6,2.6,0,0,1-1.35-.38,2.07,2.07,0,0,1-.89-1.1L149,252.92l-7.84,21.77a2.07,2.07,0,0,1-.89,1.1,2.62,2.62,0,0,1-2.72,0,2.31,2.31,0,0,1-.91-1.1l-9.32-26.07a2.15,2.15,0,0,1-.17-.85,1.72,1.72,0,0,1,.63-1.37,2.32,2.32,0,0,1,1.52-.52,2.12,2.12,0,0,1,1.16.33,2,2,0,0,1,.78,1L139,269.67,147,247.44a2.11,2.11,0,0,1,.82-1.1A2.24,2.24,0,0,1,149,246a2,2,0,0,1,1.22.4,2.47,2.47,0,0,1,.84,1.12l7.77,22.4,7.93-22.65A2.06,2.06,0,0,1,167.56,246.21Z"/><path d="M189.87,271.15a1.76,1.76,0,0,1,.38,1.18,2.41,2.41,0,0,1-1.52,2.06,13.92,13.92,0,0,1-6.58,1.78,10.4,10.4,0,0,1-7.72-2.85,10.57,10.57,0,0,1-2.82-7.78,12.26,12.26,0,0,1,1.24-5.62,9.17,9.17,0,0,1,3.5-3.79,9.8,9.8,0,0,1,5.13-1.35,8.4,8.4,0,0,1,6.54,2.65,10.33,10.33,0,0,1,2.4,7.18c0,1.12-.5,1.68-1.52,1.68h-13q.42,6.54,6.28,6.54a7.81,7.81,0,0,0,2.7-.42,19.93,19.93,0,0,0,2.41-1.1c.08-.05.31-.17.69-.35a2.23,2.23,0,0,1,1-.28A1.19,1.19,0,0,1,189.87,271.15Zm-12.23-11.69a7.27,7.27,0,0,0-1.77,4.39h10.88a7.05,7.05,0,0,0-1.45-4.41,4.67,4.67,0,0,0-3.74-1.54A5.14,5.14,0,0,0,177.64,259.46Z"/><path d="M210.92,256.08a8.79,8.79,0,0,1,3.23,3.72,12.8,12.8,0,0,1,1.16,5.61,13,13,0,0,1-1.16,5.61,8.92,8.92,0,0,1-3.25,3.8,8.53,8.53,0,0,1-4.74,1.35,8.19,8.19,0,0,1-4.1-1,6.51,6.51,0,0,1-2.7-2.84V274a2,2,0,0,1-.56,1.5,2.09,2.09,0,0,1-1.54.57,2.18,2.18,0,0,1-1.57-.57,2,2,0,0,1-.59-1.5V247.94a1.86,1.86,0,0,1,.62-1.47,2.24,2.24,0,0,1,1.58-.55,2.09,2.09,0,0,1,1.5.53,1.82,1.82,0,0,1,.56,1.41v10.8a6.63,6.63,0,0,1,2.7-2.87,8.09,8.09,0,0,1,4.1-1A8.69,8.69,0,0,1,210.92,256.08Zm-1.49,14.77a8.59,8.59,0,0,0,1.54-5.44,8.3,8.3,0,0,0-1.52-5.34,5.23,5.23,0,0,0-4.31-1.88,5.16,5.16,0,0,0-4.28,1.9,10.47,10.47,0,0,0,0,10.8,5.13,5.13,0,0,0,4.28,1.9A5.19,5.19,0,0,0,209.43,270.85Z"/><path d="M249.23,263.19a8.3,8.3,0,0,1-1.33,10.74,11.25,11.25,0,0,1-7.36,2.24,15.65,15.65,0,0,1-5.25-.89,12.31,12.31,0,0,1-4.24-2.45,2.06,2.06,0,0,1-.85-1.68,2,2,0,0,1,.42-1.29,1.27,1.27,0,0,1,1-.53,2.58,2.58,0,0,1,1.43.55,16,16,0,0,0,3.57,2.05,10.15,10.15,0,0,0,3.77.69q6,0,6-5.1a4.46,4.46,0,0,0-1.58-3.74,7.66,7.66,0,0,0-4.79-1.24h-2.32a1.6,1.6,0,0,1-1.26-.53,1.81,1.81,0,0,1-.47-1.24,1.76,1.76,0,0,1,.47-1.2,1.57,1.57,0,0,1,1.26-.53h1.65a7.41,7.41,0,0,0,4.7-1.29,4.53,4.53,0,0,0,1.63-3.77,4.42,4.42,0,0,0-1.33-3.42,5.3,5.3,0,0,0-3.74-1.22,11.53,11.53,0,0,0-7.08,2.74,2.72,2.72,0,0,1-1.44.55,1.27,1.27,0,0,1-1-.53,2,2,0,0,1-.42-1.29,2.09,2.09,0,0,1,.84-1.69,12.39,12.39,0,0,1,4.2-2.44,14.93,14.93,0,0,1,5.08-.89,10,10,0,0,1,6.65,2.07,7,7,0,0,1,2.46,5.61,7.78,7.78,0,0,1-1.24,4.41,7,7,0,0,1-3.52,2.72A7.51,7.51,0,0,1,249.23,263.19Z"/><path d="M256.63,275.32a2.58,2.58,0,0,1-.78-1.94,2.65,2.65,0,0,1,.78-2,2.61,2.61,0,0,1,1.92-.78,2.55,2.55,0,0,1,1.9.78,2.68,2.68,0,0,1,.76,2,2.6,2.6,0,0,1-.76,1.94,2.57,2.57,0,0,1-1.9.76A2.63,2.63,0,0,1,256.63,275.32Z"/><path d="M268.32,272.33q-2.73-3.88-2.72-11.31t2.72-11.35a10,10,0,0,1,15.82,0q2.72,3.87,2.72,11.33t-2.72,11.35a10,10,0,0,1-15.82,0ZM281,269.88c1-1.88,1.52-4.85,1.52-8.9s-.5-7-1.52-8.88a5.45,5.45,0,0,0-9.53,0q-1.51,2.81-1.52,8.88t1.52,8.88a5.42,5.42,0,0,0,9.53,0Z"/></svg>