<svg id="Layer_1" data-name="Layer 1" xmlns="http://www.w3.org/2000/svg" viewBox="0 0 414 522"><defs><style>.cls-1{fill:#f4f4ff;}.cls-2{fill:#5856d6;}</style></defs><circle class="cls-1" cx="207" cy="261" r="177"/><path class="cls-2" d="M200.46,364.46a103.48,103.48,0,1,1,7.84-206.68,5.06,5.06,0,1,1-.74,10.09,93.37,93.37,0,1,0,75.88,136.25,5.06,5.06,0,1,1,9,4.67A103.58,103.58,0,0,1,200.46,364.46Z"/><path class="cls-2" d="M246.09,173.71c-19.82,1.91-45.24,7.41-62.32,15.83l18.93-27.32-2.92-33.12C210.45,144.88,229.82,162.24,246.09,173.71Z"/><path class="cls-2" d="M174.23,309.13l-.1-.31H174l-.18,0a9.59,9.59,0,0,1-7-9.57q0-28.67,0-57.33v-19.1a9.89,9.89,0,0,1,.33-2.81,9.41,9.41,0,0,1,9.58-7.1h46.67a4.45,4.45,0,0,1,3.33,1.39c6.51,6.55,11.92,12,17,17a4.72,4.72,0,0,1,1.46,3.58q0,12,0,24v16.29q0,12,0,24.07a9.44,9.44,0,0,1-5.25,8.91,6.91,6.91,0,0,1-1.49.55,7.52,7.52,0,0,0-1.16.4l-.11.05Zm2.74-89.3c-2.31,0-3.18.86-3.18,3.15v76.34a2.52,2.52,0,0,0,2.82,2.86h58.86a2.52,2.52,0,0,0,2.8-2.78V280.76q0-21.42,0-42.83a1.07,1.07,0,0,0,0-.25h-.22l-5.49,0h-5.14c-4.31,0-7-2.67-7-7V228.6c0-2.72,0-5.53,0-8.3,0-.35,0-.43-.05-.44a1,1,0,0,0-.44-.05q-13.69,0-27.35,0Z"/><path class="cls-2" d="M223.43,213.37a3.92,3.92,0,0,1,3,1.25q8.49,8.53,17,17a4.19,4.19,0,0,1,1.32,3.23c0,10.41,0,20.83,0,31.24q0,16.56,0,33.11a9,9,0,0,1-5,8.47c-.84.45-1.8.54-2.64.94H174.59c-.09-.3-.4-.27-.61-.33a9.08,9.08,0,0,1-6.65-9.08q0-38.22,0-76.44a9.19,9.19,0,0,1,.32-2.66,8.9,8.9,0,0,1,9.09-6.74q23.33,0,46.67,0h0m-31.51,6H177c-2.6,0-3.68,1.07-3.68,3.65v76.34a3,3,0,0,0,3.32,3.36h58.86a3,3,0,0,0,3.3-3.28q0-30.73,0-61.47c0-.61-.17-.75-.74-.75h0l-5.49,0h-5.11c-4,0-6.5-2.46-6.5-6.47,0-3.47,0-6.94,0-10.41,0-.82-.2-1-1-1h0q-14,0-28,0m31.51-7H176.74a9.87,9.87,0,0,0-10,7.46,10.05,10.05,0,0,0-.36,2.94v19.15q0,28.65,0,57.29a10.07,10.07,0,0,0,7.4,10h0l.12.35h63.45l.2-.1a7.18,7.18,0,0,1,1.08-.37,7.65,7.65,0,0,0,1.6-.59,9.92,9.92,0,0,0,5.51-9.35q0-11.89,0-23.78V258.79c0-7.84,0-16,0-23.92a5.21,5.21,0,0,0-1.61-3.94c-5.08-5-10.49-10.45-17-17a4.93,4.93,0,0,0-3.67-1.54Zm-31.51,8q14,0,28,0h0c-.05,2.75,0,5.53,0,8.22v2.19c0,4.54,3,7.47,7.5,7.47h5.11l5.26,0q0,21.63,0,43.26v18a2,2,0,0,1-2.3,2.28H176.61c-1.58,0-2.31-.75-2.32-2.36V223c0-2,.63-2.65,2.68-2.65h14.95Z"/><path class="cls-2" d="M180.16,261.53a1.49,1.49,0,0,1-1.14-.36,1.46,1.46,0,0,1-.29-1.12c.06-1.28.06-2.63,0-4.14a1.32,1.32,0,0,1,.28-1,1.38,1.38,0,0,1,1.06-.33h43.48l8.43,0h0a1.14,1.14,0,0,1,1.36,1.37c-.06,1.39-.06,2.82,0,4.24a1.14,1.14,0,0,1-1.34,1.37l-15.59,0H195.3l-15.12,0Z"/><path class="cls-2" d="M232,255c.66,0,.86.16.83.85-.06,1.42-.06,2.85,0,4.28,0,.69-.16.85-.84.85h0l-15.35,0H195q-7.44,0-14.86,0h0c-.75,0-1-.18-.93-.95.07-1.4.06-2.79,0-4.19,0-.69.16-.85.84-.85h43.38l8.53,0h0m0-1h0l-8.52,0H180.08a1.91,1.91,0,0,0-1.43.48,1.83,1.83,0,0,0-.42,1.42c.06,1.47.06,2.81,0,4.08a1.9,1.9,0,0,0,.43,1.5,1.93,1.93,0,0,0,1.5.51L195,262h21.59L232,262h0a1.9,1.9,0,0,0,1.43-.48,1.84,1.84,0,0,0,.43-1.42c-.06-1.4-.06-2.81,0-4.19a1.79,1.79,0,0,0-.43-1.41A1.87,1.87,0,0,0,232,254Z"/><path class="cls-2" d="M180.17,276.41a1.21,1.21,0,0,1-1.44-1.48c.06-1.3.06-2.65,0-4.13a1.34,1.34,0,0,1,.28-1.05,1.4,1.4,0,0,1,1.06-.33l24.13,0h19.43c2.78,0,5.56,0,8.35,0h0a1.4,1.4,0,0,1,1.07.33,1.37,1.37,0,0,1,.29,1c-.06,1.4-.06,2.82,0,4.24a1.15,1.15,0,0,1-1.35,1.38q-7.58,0-15.14,0H195q-7.38,0-14.77,0Z"/><path class="cls-2" d="M232,269.92c.67,0,.86.16.83.85-.06,1.43-.06,2.86,0,4.28,0,.69-.16.86-.84.86h0q-7.66,0-15.34,0H195.12q-7.47,0-14.94,0h0c-.75,0-1-.18-.93-1,.07-1.39.06-2.79,0-4.18,0-.7.16-.86.84-.86h0l23.11,0h20.56c2.74,0,5.49,0,8.23,0h0m0-1h0c-2.74,0-5.48,0-8.22,0H203.19l-23.1,0h0a1.91,1.91,0,0,0-1.43.48,1.84,1.84,0,0,0-.42,1.42c.06,1.47.06,2.81,0,4.09a1.88,1.88,0,0,0,.43,1.49,1.93,1.93,0,0,0,1.5.51q7.5,0,15,0h21.52q7.67,0,15.34,0h0a1.92,1.92,0,0,0,1.43-.49,1.83,1.83,0,0,0,.43-1.41c-.06-1.4-.06-2.81,0-4.19a1.8,1.8,0,0,0-.43-1.42,1.87,1.87,0,0,0-1.4-.48Z"/><path class="cls-2" d="M220.26,291.28H179.9a1.17,1.17,0,0,1-.9-.29,1.18,1.18,0,0,1-.27-.88c0-1.41.06-2.93,0-4.43a1.14,1.14,0,0,1,1.34-1.38c3.74,0,7.46,0,11.18,0H209c3.68,0,7.37,0,11,0h0a1.42,1.42,0,0,1,1.07.33,1.38,1.38,0,0,1,.28,1.05c-.06,1.52,0,3,0,4.43a1.18,1.18,0,0,1-.27.88,1.16,1.16,0,0,1-.89.29Z"/><path class="cls-2" d="M220.1,284.8c.67,0,.86.16.83.86-.06,1.48,0,3,0,4.46,0,.53-.15.66-.67.66H179.89c-.52,0-.67-.13-.66-.66,0-1.49.06-3,0-4.46,0-.7.16-.86.83-.86h0c3.72,0,7.44,0,11.16,0H209c3.68,0,7.36,0,11,0h0m0-1h0c-3.68,0-7.35,0-11,0H191.25c-3.72,0-7.44,0-11.16,0h0a1.94,1.94,0,0,0-1.43.48,1.83,1.83,0,0,0-.42,1.42c.06,1.5,0,3,0,4.4a1.49,1.49,0,0,0,1.66,1.68h40.37a1.71,1.71,0,0,0,1.26-.44,1.66,1.66,0,0,0,.41-1.24c0-1.39-.06-2.89,0-4.4a1.83,1.83,0,0,0-.42-1.42,1.91,1.91,0,0,0-1.41-.48Z"/><path class="cls-2" d="M226.21,291.12c-.21-.2-.21-.48-.21-1,0-1.49,0-3,0-4.46,0-.7,0-1,.22-1.19l.14-.15.26,0c.58,0,1.14,0,1.7,0H231c.55,0,1.11,0,1.67,0h.21l.21.17c.21.21.23.49.22,1.19,0,1.48,0,3,0,4.46,0,.52,0,.8-.21,1l-.14.15h-6.6Z"/><path class="cls-2" d="M232.71,284.8c.11,0,.14.16.13.86,0,1.48,0,3,0,4.46,0,.53,0,.66-.1.66H226.6c-.08,0-.1-.13-.1-.66,0-1.49,0-3,0-4.46,0-.7,0-.86.12-.86h0c.56,0,1.13,0,1.7,0H231c.56,0,1.12,0,1.68,0h0m0-1h0c-.55,0-1.1,0-1.65,0h-2.7c-.56,0-1.12,0-1.67,0h0a1.05,1.05,0,0,0-.79.32c-.37.37-.37.86-.36,1.54,0,1.49,0,3,0,4.46a1.73,1.73,0,0,0,.35,1.35l.29.3h7l.34-.32a1.77,1.77,0,0,0,.35-1.35c0-1.49,0-3,0-4.46,0-.68,0-1.17-.37-1.54a1,1,0,0,0-.76-.32Z"/></svg>