<svg id="Layer_1" data-name="Layer 1" xmlns="http://www.w3.org/2000/svg" viewBox="0 0 414 522"><defs><style>.cls-1{fill:#fceee4;}.cls-2{fill:none;stroke:#ea7a2f;stroke-linecap:round;stroke-linejoin:round;stroke-width:9px;}</style></defs><circle class="cls-1" cx="207" cy="261" r="177"/><polygon class="cls-2" points="209.85 145.7 180.67 162.55 180.67 191.93 209.85 208.78 239.04 191.93 239.04 162.55 209.85 145.7"/><line class="cls-2" x1="209.86" y1="145.7" x2="209.86" y2="229.59"/><polyline class="cls-2" points="180.67 162.55 209.85 183.73 239.04 162.55"/><polygon class="cls-2" points="209.85 229.46 180.67 246.31 180.67 275.69 209.85 292.54 239.04 275.69 239.04 246.31 209.85 229.46"/><line class="cls-2" x1="209.86" y1="229.46" x2="210.17" y2="313.35"/><polyline class="cls-2" points="262.21 229.59 209.85 267.49 153.06 226.42"/><polygon class="cls-2" points="122.29 277.68 93.1 294.54 93.1 323.92 122.29 340.77 151.48 323.92 151.48 294.54 122.29 277.68"/><line class="cls-2" x1="122.29" y1="237.84" x2="122.29" y2="340.77"/><polyline class="cls-2" points="179.71 274.01 122.29 315.71 93.1 294.54"/><polygon class="cls-2" points="122.29 180.6 93.1 197.45 93.1 226.83 122.29 243.68 151.48 226.83 151.48 197.45 122.29 180.6"/><line class="cls-2" x1="122.29" y1="180.6" x2="122.29" y2="243.68"/><polyline class="cls-2" points="93.1 197.45 122.29 218.63 151.48 197.45"/><polygon class="cls-2" points="291.71 276.41 262.52 293.27 262.52 322.65 291.71 339.5 320.9 322.65 320.9 293.27 291.71 276.41"/><line class="cls-2" x1="292.03" y1="240.38" x2="291.71" y2="339.5"/><polyline class="cls-2" points="320.9 293.27 291.71 314.44 239.36 275.91"/><polygon class="cls-2" points="291.71 180.6 262.52 197.45 262.52 226.83 291.71 243.68 320.9 226.83 320.9 197.45 291.71 180.6"/><line class="cls-2" x1="291.71" y1="180.6" x2="291.71" y2="243.68"/><polyline class="cls-2" points="320.9 197.45 291.71 218.63 262.52 197.45"/><polygon class="cls-2" points="209.85 313.22 180.67 330.07 180.67 359.45 209.85 376.3 239.04 359.45 239.04 330.07 209.85 313.22"/><line class="cls-2" x1="209.86" y1="313.22" x2="209.86" y2="376.3"/><polyline class="cls-2" points="239.04 330.07 209.85 351.25 180.67 330.07"/></svg>