<svg id="Layer_1" data-name="Layer 1" xmlns="http://www.w3.org/2000/svg" viewBox="0 0 414 522"><defs><style>.cls-1{fill:#ffecef;}.cls-2{fill:#ff4361;}</style></defs><path d="M57.38,438.76a14.09,14.09,0,0,1-1.12,5.84,8.46,8.46,0,0,1-3.19,3.8,8.77,8.77,0,0,1-12.8-3.77A13.42,13.42,0,0,1,39.09,439v-1.64a13.93,13.93,0,0,1,1.14-5.8,8.43,8.43,0,0,1,8-5.19,8.83,8.83,0,0,1,4.82,1.32,8.52,8.52,0,0,1,3.21,3.83,14.15,14.15,0,0,1,1.12,5.84Zm-3-1.47a10.18,10.18,0,0,0-1.63-6.21,5.79,5.79,0,0,0-9,0,10,10,0,0,0-1.68,6v1.67a10.23,10.23,0,0,0,1.65,6.17,5.78,5.78,0,0,0,9,.12A10.15,10.15,0,0,0,54.4,439Z"/><path d="M71.87,447.73a6.14,6.14,0,0,1-5,2,5.26,5.26,0,0,1-4.11-1.57,6.77,6.77,0,0,1-1.43-4.65v-11h2.89v10.92q0,3.84,3.12,3.84,3.32,0,4.41-2.47V432.5h2.89v16.9H71.93Z"/><path d="M87.24,435.09a9,9,0,0,0-1.42-.11A3.81,3.81,0,0,0,82,437.4v12H79.07V432.5h2.81l.05,1.95a4.5,4.5,0,0,1,4-2.26,3.06,3.06,0,0,1,1.28.21Z"/><path d="M99.24,449.4V434.73H96.57V432.5h2.67v-1.74a5.75,5.75,0,0,1,1.46-4.2,5.45,5.45,0,0,1,4.1-1.48,7.5,7.5,0,0,1,2,.26l-.16,2.33a8.62,8.62,0,0,0-1.56-.14,2.81,2.81,0,0,0-2.17.82,3.35,3.35,0,0,0-.77,2.36v1.79h3.61v2.23h-3.61V449.4Z"/><path d="M117.1,435.09a9,9,0,0,0-1.42-.11,3.81,3.81,0,0,0-3.86,2.42v12h-2.89V432.5h2.81l.05,1.95a4.5,4.5,0,0,1,4-2.26,3.06,3.06,0,0,1,1.28.21Z"/><path d="M119.77,428a1.73,1.73,0,0,1,.43-1.18,1.92,1.92,0,0,1,2.56,0,1.8,1.8,0,0,1,0,2.36,2,2,0,0,1-2.56,0A1.73,1.73,0,0,1,119.77,428Zm3.13,21.39H120V432.5h2.89Z"/><path d="M134.54,449.72a7.39,7.39,0,0,1-5.59-2.26,8.38,8.38,0,0,1-2.16-6v-.53a10.11,10.11,0,0,1,1-4.49,7.54,7.54,0,0,1,2.69-3.1,6.79,6.79,0,0,1,3.74-1.11,6.3,6.3,0,0,1,5.12,2.17,9.4,9.4,0,0,1,1.83,6.22v1.2H129.68a6,6,0,0,0,1.46,4,4.62,4.62,0,0,0,3.56,1.54,5,5,0,0,0,2.59-.63,6.47,6.47,0,0,0,1.86-1.65l1.76,1.37A7.08,7.08,0,0,1,134.54,449.72Zm-.36-15.16a3.88,3.88,0,0,0-2.94,1.27,6.22,6.22,0,0,0-1.47,3.57h8.47v-.21a5.5,5.5,0,0,0-1.19-3.42A3.6,3.6,0,0,0,134.18,434.56Z"/><path d="M147.21,432.5l.09,2.12a6.18,6.18,0,0,1,5.07-2.43q5.35,0,5.4,6V449.4h-2.89V438.22a4,4,0,0,0-.83-2.71,3.37,3.37,0,0,0-2.56-.87,4.17,4.17,0,0,0-2.47.75,5,5,0,0,0-1.65,2v12h-2.89V432.5Z"/><path d="M161.43,440.81a9.92,9.92,0,0,1,1.84-6.26,6.28,6.28,0,0,1,9.53-.33V425.4h2.9v24H173l-.14-1.81a5.89,5.89,0,0,1-4.83,2.13,5.77,5.77,0,0,1-4.79-2.41,10,10,0,0,1-1.85-6.28Zm2.89.33a7.5,7.5,0,0,0,1.19,4.5,3.83,3.83,0,0,0,3.28,1.62,4.2,4.2,0,0,0,4-2.47V437a4.25,4.25,0,0,0-4-2.39,3.86,3.86,0,0,0-3.31,1.64A8.25,8.25,0,0,0,164.32,441.14Z"/><path d="M190,444.92a2.12,2.12,0,0,0-.88-1.82,8.46,8.46,0,0,0-3.08-1.12,14.82,14.82,0,0,1-3.48-1.12,4.94,4.94,0,0,1-1.91-1.57,3.73,3.73,0,0,1-.62-2.15,4.4,4.4,0,0,1,1.76-3.52,6.9,6.9,0,0,1,4.49-1.43,7.07,7.07,0,0,1,4.67,1.48,4.73,4.73,0,0,1,1.79,3.8h-2.91a2.59,2.59,0,0,0-1-2.05,3.77,3.77,0,0,0-2.54-.86,3.91,3.91,0,0,0-2.46.69A2.15,2.15,0,0,0,183,437a1.75,1.75,0,0,0,.82,1.58,10,10,0,0,0,3,1,15.74,15.74,0,0,1,3.5,1.15,5.2,5.2,0,0,1,2,1.62,4,4,0,0,1,.64,2.31,4.31,4.31,0,0,1-1.81,3.63,7.6,7.6,0,0,1-4.7,1.37,8.54,8.54,0,0,1-3.6-.72,5.85,5.85,0,0,1-2.44-2,4.83,4.83,0,0,1-.88-2.79h2.89a3,3,0,0,0,1.16,2.31,5.38,5.38,0,0,0,5.5.18A2,2,0,0,0,190,444.92Z"/><path d="M215,449.4a6,6,0,0,1-.41-1.78,6.44,6.44,0,0,1-4.81,2.1,5.93,5.93,0,0,1-4.1-1.42,4.55,4.55,0,0,1-1.6-3.58,4.79,4.79,0,0,1,2-4.1,9.45,9.45,0,0,1,5.65-1.47h2.82v-1.32a3.28,3.28,0,0,0-.91-2.42,3.64,3.64,0,0,0-2.67-.9,4.25,4.25,0,0,0-2.6.78,2.34,2.34,0,0,0-1,1.9h-2.91a4,4,0,0,1,.9-2.45,6.11,6.11,0,0,1,2.44-1.87,8.3,8.3,0,0,1,3.38-.68,6.66,6.66,0,0,1,4.58,1.46,5.3,5.3,0,0,1,1.72,4v7.78a9.41,9.41,0,0,0,.59,3.7v.25Zm-4.8-2.2a5.05,5.05,0,0,0,2.58-.7,4.32,4.32,0,0,0,1.77-1.83V441.2h-2.27q-5.31,0-5.31,3.11a2.64,2.64,0,0,0,.9,2.13A3.49,3.49,0,0,0,210.24,447.2Z"/><path d="M224.74,432.5l.1,2.12a6.17,6.17,0,0,1,5.06-2.43q5.35,0,5.4,6V449.4h-2.89V438.22a4,4,0,0,0-.83-2.71,3.37,3.37,0,0,0-2.56-.87,4.2,4.2,0,0,0-2.47.75,5,5,0,0,0-1.65,2v12H222V432.5Z"/><path d="M239,440.81a10,10,0,0,1,1.84-6.26,6.29,6.29,0,0,1,9.54-.33V425.4h2.89v24h-2.66l-.14-1.81a5.89,5.89,0,0,1-4.83,2.13,5.77,5.77,0,0,1-4.79-2.41A10,10,0,0,1,239,441Zm2.89.33a7.5,7.5,0,0,0,1.19,4.5,3.83,3.83,0,0,0,3.28,1.62,4.23,4.23,0,0,0,4-2.47V437a4.27,4.27,0,0,0-4-2.39,3.86,3.86,0,0,0-3.31,1.64A8.25,8.25,0,0,0,241.85,441.14Z"/><path d="M267.05,449.4V434.73h-2.67V432.5h2.67v-1.74a5.75,5.75,0,0,1,1.46-4.2,5.49,5.49,0,0,1,4.11-1.48,7.43,7.43,0,0,1,2,.26l-.15,2.33a8.73,8.73,0,0,0-1.57-.14,2.82,2.82,0,0,0-2.17.82,3.35,3.35,0,0,0-.76,2.36v1.79h3.6v2.23H270V449.4Z"/><path d="M287.18,449.4a6,6,0,0,1-.41-1.78,6.42,6.42,0,0,1-4.81,2.1,5.93,5.93,0,0,1-4.1-1.42,4.55,4.55,0,0,1-1.6-3.58,4.77,4.77,0,0,1,2-4.1,9.39,9.39,0,0,1,5.64-1.47h2.82v-1.32a3.28,3.28,0,0,0-.91-2.42,3.62,3.62,0,0,0-2.67-.9,4.25,4.25,0,0,0-2.6.78,2.34,2.34,0,0,0-1,1.9H276.6a4,4,0,0,1,.9-2.45,6.11,6.11,0,0,1,2.44-1.87,8.3,8.3,0,0,1,3.38-.68,6.66,6.66,0,0,1,4.58,1.46,5.26,5.26,0,0,1,1.72,4v7.78a9.6,9.6,0,0,0,.59,3.7v.25Zm-4.8-2.2a5.05,5.05,0,0,0,2.58-.7,4.32,4.32,0,0,0,1.77-1.83V441.2h-2.27q-5.31,0-5.31,3.11a2.64,2.64,0,0,0,.9,2.13A3.49,3.49,0,0,0,282.38,447.2Z"/><path d="M296.87,432.5l.08,1.87a6.24,6.24,0,0,1,5-2.18c2.37,0,4,.9,4.83,2.71a6.38,6.38,0,0,1,2.19-2,6.52,6.52,0,0,1,3.2-.75c3.71,0,5.59,2,5.66,5.89V449.4H315V438.25a3.89,3.89,0,0,0-.83-2.71,3.64,3.64,0,0,0-2.78-.9,3.85,3.85,0,0,0-2.68,1,3.91,3.91,0,0,0-1.23,2.59V449.4h-2.91V438.33q0-3.69-3.61-3.69a3.88,3.88,0,0,0-3.89,2.42V449.4h-2.89V432.5Z"/><path d="M322.21,428a1.68,1.68,0,0,1,.43-1.18,1.59,1.59,0,0,1,1.27-.49,1.64,1.64,0,0,1,1.29.49,1.65,1.65,0,0,1-1.29,2.82,1.65,1.65,0,0,1-1.27-.46A1.68,1.68,0,0,1,322.21,428Zm3.13,21.39h-2.89V432.5h2.89Z"/><path d="M333.1,449.4h-2.89v-24h2.89Z"/><path d="M337.74,428a1.73,1.73,0,0,1,.43-1.18,1.6,1.6,0,0,1,1.28-.49,1.63,1.63,0,0,1,1.28.49,1.65,1.65,0,0,1-1.28,2.82,1.66,1.66,0,0,1-1.28-.46A1.73,1.73,0,0,1,337.74,428Zm3.13,21.39H338V432.5h2.89Z"/><path d="M352.51,449.72a7.43,7.43,0,0,1-5.6-2.26,8.42,8.42,0,0,1-2.15-6v-.53a10.11,10.11,0,0,1,1-4.49,7.47,7.47,0,0,1,2.69-3.1,6.76,6.76,0,0,1,3.74-1.11,6.31,6.31,0,0,1,5.12,2.17,9.4,9.4,0,0,1,1.83,6.22v1.2H347.65a6,6,0,0,0,1.46,4,4.61,4.61,0,0,0,3.55,1.54,5,5,0,0,0,2.6-.63,6.47,6.47,0,0,0,1.86-1.65l1.76,1.37A7.08,7.08,0,0,1,352.51,449.72Zm-.36-15.16a3.88,3.88,0,0,0-2.94,1.27,6.22,6.22,0,0,0-1.47,3.57h8.47v-.21a5.5,5.5,0,0,0-1.19-3.42A3.6,3.6,0,0,0,352.15,434.56Z"/><path d="M372.29,444.92a2.12,2.12,0,0,0-.88-1.82,8.54,8.54,0,0,0-3.08-1.12,14.77,14.77,0,0,1-3.49-1.12,4.9,4.9,0,0,1-1.9-1.57,3.73,3.73,0,0,1-.62-2.15,4.4,4.4,0,0,1,1.76-3.52,6.9,6.9,0,0,1,4.49-1.43,7,7,0,0,1,4.66,1.48,4.7,4.7,0,0,1,1.79,3.8h-2.9a2.62,2.62,0,0,0-1-2.05,3.79,3.79,0,0,0-2.54-.86,4,4,0,0,0-2.47.69,2.18,2.18,0,0,0-.89,1.79,1.76,1.76,0,0,0,.83,1.58,9.9,9.9,0,0,0,3,1,16,16,0,0,1,3.51,1.15,5.16,5.16,0,0,1,2,1.62,4,4,0,0,1,.65,2.31,4.31,4.31,0,0,1-1.81,3.63,7.63,7.63,0,0,1-4.71,1.37,8.49,8.49,0,0,1-3.59-.72,5.88,5.88,0,0,1-2.45-2,4.9,4.9,0,0,1-.88-2.79h2.89a3,3,0,0,0,1.17,2.31,4.55,4.55,0,0,0,2.86.85,4.61,4.61,0,0,0,2.64-.67A2,2,0,0,0,372.29,444.92Z"/><circle class="cls-1" cx="207" cy="221" r="177"/><path class="cls-2" d="M84.28,225.77c.38-.05.48-.33.57-.65,2.31-8.51,12.16-15,24.13-9.15a20.34,20.34,0,0,1-8.65,38.54c-2.15.05-4.32-.14-6.46.05-4.46.41-7.69-1.2-9.59-5.3Z"/><path class="cls-2" d="M329.72,249.26c-1.9,4.15-5.18,5.68-9.64,5.3-3.26-.28-6.54.19-9.8-.43-10.33-2-17.76-12-16.41-22.26a20.5,20.5,0,0,1,21.44-18.05,15.69,15.69,0,0,1,13.92,11.68c.11.42-.1,1,.49,1.23Z"/><path class="cls-2" d="M187.11,194.61c13.34,0,26.12,0,38.91,0a3.29,3.29,0,0,1,2.65,1.22Q246,214.3,271.41,213.73a53,53,0,0,0,14.12-2.38c.74-.23,1.45-.73,2.34-.36,0,.88-.76,1.3-1.2,1.9-8.28,11.38-9.87,23.68-3.75,36.31s16.71,19.1,30.77,19.69c3,.13,6.08.05,9.11,0,1.11,0,1.69.08,1.68,1.5-.06,15.5,0,31-.06,46.5a7,7,0,0,1-6.94,7.11c-6,.11-12,0-18,.08-1.79,0-1.41-1-1.41-2,0-12,0-24,0-35.95,0-5.57-5.12-9.2-10-7.05a7.12,7.12,0,0,0-4.42,7.05c0,11.82,0,23.64.06,35.47,0,1.94-.38,2.49-2.42,2.48q-32.35-.13-64.72,0c-2,0-2.48-.4-2.47-2.43.08-23.25,0-46.5.07-69.75.09-22.89-8.46-41.71-26.1-56.36C187.89,195.36,187.69,195.15,187.11,194.61Z"/><path class="cls-2" d="M126.2,210.77c2.21.56,4.41,1.18,6.65,1.67a53.86,53.86,0,0,0,41.08-7.14c1.3-.8,2.13-1,3.47.07,14.2,11,22,25.36,22.3,43.3.36,24.51.09,49,.14,73.55,0,1.46-.31,1.86-1.82,1.85q-32.94-.07-65.89,0c-1.74,0-1.86-.65-1.86-2.05q.07-18,0-35.94c0-5.55-5.2-9.17-10-7a7.17,7.17,0,0,0-4.37,7.08c0,11.9,0,23.8.06,35.7,0,1.81-.44,2.25-2.22,2.2-5.43-.13-10.86,0-16.29-.05-4.95,0-7.9-2.94-7.9-7.88,0-15,0-30,0-45,0-1.72.3-2.28,2.17-2.26,5.65.09,11.33.43,16.91-1a34.79,34.79,0,0,0,18.74-54.9c-.43-.56-.87-1.11-1.31-1.66Z"/><path class="cls-2" d="M144.71,117.91a40.75,40.75,0,1,1-40.77,40.59A40.81,40.81,0,0,1,144.71,117.91Z"/><path class="cls-2" d="M310.06,158.74a40.75,40.75,0,1,1-40.53-40.83A40.82,40.82,0,0,1,310.06,158.74Z"/></svg>