<svg id="Layer_1" data-name="Layer 1" xmlns="http://www.w3.org/2000/svg" viewBox="0 0 414 522"><defs><style>.cls-1{fill:#eaf9ff;}.cls-2{fill:#d3d3d3;}.cls-3{fill:#57b6e2;}.cls-4{fill:#fff;}</style></defs><path d="M169.71,449.4V426.65h6.42a10.29,10.29,0,0,1,5.25,1.32,8.89,8.89,0,0,1,3.53,3.73,12.27,12.27,0,0,1,1.25,5.56v1.46a12.2,12.2,0,0,1-1.24,5.64,8.83,8.83,0,0,1-3.54,3.72A11.06,11.06,0,0,1,176,449.4Zm3-20.29V447h3.16a6.88,6.88,0,0,0,5.4-2.16,8.93,8.93,0,0,0,1.93-6.14v-1.33a9.07,9.07,0,0,0-1.82-6,6.51,6.51,0,0,0-5.17-2.18Z"/><path d="M202.93,443.45H193.4l-2.14,5.95h-3.1l8.69-22.75h2.63l8.7,22.75H205.1ZM194.3,441H202l-3.88-10.64Z"/><path d="M228.57,438.76a14.09,14.09,0,0,1-1.12,5.84,8.53,8.53,0,0,1-3.19,3.8,8.79,8.79,0,0,1-12.81-3.77,13.58,13.58,0,0,1-1.18-5.66v-1.64a13.93,13.93,0,0,1,1.14-5.8,8.46,8.46,0,0,1,8-5.19,8.8,8.8,0,0,1,4.82,1.32,8.54,8.54,0,0,1,3.22,3.83,14.15,14.15,0,0,1,1.12,5.84Zm-3-1.47a10.25,10.25,0,0,0-1.63-6.21,5.36,5.36,0,0,0-4.55-2.16,5.3,5.3,0,0,0-4.47,2.16,10,10,0,0,0-1.68,6v1.67a10.23,10.23,0,0,0,1.65,6.17,5.78,5.78,0,0,0,9,.12,10.22,10.22,0,0,0,1.64-6.07Z"/><path d="M242.46,444.92a2.12,2.12,0,0,0-.88-1.82A8.54,8.54,0,0,0,238.5,442a14.82,14.82,0,0,1-3.48-1.12,4.94,4.94,0,0,1-1.91-1.57,3.73,3.73,0,0,1-.62-2.15,4.4,4.4,0,0,1,1.76-3.52,6.9,6.9,0,0,1,4.49-1.43,7.08,7.08,0,0,1,4.67,1.48,4.73,4.73,0,0,1,1.79,3.8h-2.91a2.62,2.62,0,0,0-1-2.05,3.79,3.79,0,0,0-2.54-.86,4,4,0,0,0-2.47.69,2.18,2.18,0,0,0-.89,1.79,1.76,1.76,0,0,0,.83,1.58,9.9,9.9,0,0,0,3,1,15.84,15.84,0,0,1,3.51,1.15,5.09,5.09,0,0,1,2,1.62,4,4,0,0,1,.65,2.31,4.31,4.31,0,0,1-1.81,3.63,7.62,7.62,0,0,1-4.7,1.37,8.51,8.51,0,0,1-3.6-.72,5.79,5.79,0,0,1-2.44-2,4.84,4.84,0,0,1-.89-2.79h2.89a3,3,0,0,0,1.17,2.31,5.38,5.38,0,0,0,5.5.18A2,2,0,0,0,242.46,444.92Z"/><circle class="cls-1" cx="207" cy="215" r="177"/><path class="cls-2" d="M309.11,140.76l-6.86-1L224.94,128.2l-6.85-1a11.83,11.83,0,0,1,.12,1.7,11.45,11.45,0,0,1-1.12,5l6.85,1,77.33,11.55,6.85,1a10.76,10.76,0,0,1-.13-1.71A11.41,11.41,0,0,1,309.11,140.76ZM308,283.16a11.9,11.9,0,0,1,.11-1.59l-6.84,1.09L223.89,295,217,296.06a11.47,11.47,0,0,1,1.17,5.06,11.9,11.9,0,0,1-.11,1.59l6.84-1.08,77.37-12.32,6.85-1.09A11.41,11.41,0,0,1,308,283.16ZM93.64,265l-8-33.58-1.6-6.74a11.39,11.39,0,0,1-5.81,1.58c-.25,0-.5,0-.74,0l1.6,6.74,8,33.58,1.61,6.74a11.45,11.45,0,0,1,5.82-1.58c.24,0,.48,0,.72,0ZM94,157.21a11.4,11.4,0,0,1-5.72-1.53l-1.55,6.76L78.94,196.5l-1.54,6.76c.28,0,.56,0,.85,0A11.29,11.29,0,0,1,84,204.76L85.5,198l7.76-34.06,1.54-6.76C94.52,157.19,94.24,157.21,94,157.21ZM196.41,296.06l-6.85-1.1-76.82-12.29-6.84-1.09a11.75,11.75,0,0,1,.11,1.58,11.41,11.41,0,0,1-1.17,5.06l6.84,1.1,76.82,12.29,6.84,1.09a11.64,11.64,0,0,1-.11-1.58A11.28,11.28,0,0,1,196.41,296.06Zm139.34-69.85a11.39,11.39,0,0,1-5.81-1.58l-1.6,6.74-8,33.58-1.59,6.74c.24,0,.48,0,.72,0a11.36,11.36,0,0,1,5.82,1.59l1.61-6.75,8-33.58,1.6-6.74C336.25,226.21,336,226.21,335.75,226.21Zm-.83-29.7-8.05-34.13-1.59-6.75a11.4,11.4,0,0,1-5.8,1.58l-.75,0,1.59,6.74,8,34.14,1.6,6.74a11.38,11.38,0,0,1,5.79-1.57c.26,0,.51,0,.76,0ZM195.23,128.88a10.76,10.76,0,0,1,.13-1.71l-6.86,1-77.32,11.54-6.85,1a11.55,11.55,0,0,1,1.12,5,10.76,10.76,0,0,1-.13,1.71l6.85-1,77.33-11.55,6.85-1A11.45,11.45,0,0,1,195.23,128.88Z"/><path class="cls-2" d="M210.92,139.57V290.43a11.32,11.32,0,0,0-8.41,0V139.57a11.32,11.32,0,0,0,8.41,0Z"/><path class="cls-2" d="M324.26,214.72a11.29,11.29,0,0,0,.8,4.2H88.94a11.45,11.45,0,0,0,0-8.41H325.06A11.3,11.3,0,0,0,324.26,214.72Z"/><path class="cls-2" d="M142.88,187.56,137,193.63l-17.58-16.95-16-15.41-5.11-4.93a11.6,11.6,0,0,0,6.06-5.86l5,4.85,16.11,15.53Z"/><path class="cls-2" d="M309.56,267.87l5.06,4.88a11.53,11.53,0,0,0-5.79,6.11l-5.08-4.9-17.07-16.45-13.31-12.83,5.84-6.06,13.6,13.11Z"/><path class="cls-2" d="M315,156.29l-5.17,4.88L293,177l-19.47,18.36-5.78-6.12L287.08,171l16.82-15.85,5.09-4.8A11.51,11.51,0,0,0,315,156.29Z"/><path class="cls-2" d="M144.53,241.9l-17.32,16.33-16.86,15.89L105.21,279a11.59,11.59,0,0,0-5.72-6.17L104.6,268l15.82-14.92,18.34-17.28Z"/><rect class="cls-3" x="117.24" y="169" width="177.85" height="90.33" rx="23.34"/><path class="cls-3" d="M196.35,133.84l-6.85,1a18.27,18.27,0,0,0,13,11.78v-7.06A11.51,11.51,0,0,1,196.35,133.84Zm0,0-6.85,1a18.27,18.27,0,0,0,13,11.78v-7.06A11.51,11.51,0,0,1,196.35,133.84Zm0,0-6.85,1a18.27,18.27,0,0,0,13,11.78v-7.06A11.51,11.51,0,0,1,196.35,133.84Zm0,0-6.85,1a18.27,18.27,0,0,0,13,11.78v-7.06A11.51,11.51,0,0,1,196.35,133.84Zm28.59-5.64a18.23,18.23,0,0,0-36.44,0c0,.22,0,.45,0,.68a17.62,17.62,0,0,0,1,6,18.2,18.2,0,0,0,17.22,12.27,18.09,18.09,0,0,0,4.2-.49,18.27,18.27,0,0,0,13-11.78,17.62,17.62,0,0,0,1-6C225,128.65,225,128.42,224.94,128.2Zm-14,11.37a11.32,11.32,0,0,1-8.41,0,11.46,11.46,0,0,1-7.28-10.69,10.76,10.76,0,0,1,.13-1.71,11.49,11.49,0,0,1,22.73,0,11.83,11.83,0,0,1,.12,1.7,11.45,11.45,0,0,1-7.29,10.69Zm-14.57-5.73-6.85,1a18.27,18.27,0,0,0,13,11.78v-7.06A11.51,11.51,0,0,1,196.35,133.84Zm0,0-6.85,1a18.27,18.27,0,0,0,13,11.78v-7.06A11.51,11.51,0,0,1,196.35,133.84Zm0,0-6.85,1a18.27,18.27,0,0,0,13,11.78v-7.06A11.51,11.51,0,0,1,196.35,133.84Zm0,0-6.85,1a18.27,18.27,0,0,0,13,11.78v-7.06A11.51,11.51,0,0,1,196.35,133.84Z"/><path class="cls-3" d="M223.89,295a18.3,18.3,0,0,0-13-11.61,18.29,18.29,0,0,0-8.41,0A18.28,18.28,0,0,0,189.56,295a18,18,0,0,0-1.08,6.16,4,4,0,0,0,0,.49,18.23,18.23,0,0,0,36.44,0,4.35,4.35,0,0,0,0-.51A18.09,18.09,0,0,0,223.89,295Zm-17.17,17.64a11.51,11.51,0,0,1-11.38-9.92,11.64,11.64,0,0,1-.11-1.58,11.28,11.28,0,0,1,1.18-5.06,11.47,11.47,0,0,1,6.1-5.63,11.32,11.32,0,0,1,8.41,0,11.46,11.46,0,0,1,7.29,10.69,11.9,11.9,0,0,1-.11,1.59A11.51,11.51,0,0,1,206.72,312.62Z"/><path class="cls-3" d="M308.12,147.42l-6.85-1a18,18,0,0,0,2.63,8.78l5.09-4.8A11,11,0,0,1,308.12,147.42Zm0,0-6.85-1a18,18,0,0,0,2.63,8.78l5.09-4.8A11,11,0,0,1,308.12,147.42Zm0,0-6.85-1a18,18,0,0,0,2.63,8.78l5.09-4.8A11,11,0,0,1,308.12,147.42Zm0,0-6.85-1a18,18,0,0,0,2.63,8.78l5.09-4.8A11,11,0,0,1,308.12,147.42Zm11.36-19.94a18.25,18.25,0,0,0-18.24,18.23q0,.34,0,.69a18,18,0,0,0,2.63,8.78,18.41,18.41,0,0,0,5.92,6,18.09,18.09,0,0,0,9.66,2.78c.29,0,.56,0,.84,0a17.67,17.67,0,0,0,6.55-1.54,18.23,18.23,0,0,0-7.39-34.9Zm5.8,28.15a11.4,11.4,0,0,1-5.8,1.58l-.75,0a11.14,11.14,0,0,1-3.74-.89,11.51,11.51,0,0,1-6-5.91,11,11,0,0,1-.87-3,10.76,10.76,0,0,1-.13-1.71,11.5,11.5,0,1,1,17.29,9.92Zm-17.16-8.21-6.85-1a18,18,0,0,0,2.63,8.78l5.09-4.8A11,11,0,0,1,308.12,147.42Zm0,0-6.85-1a18,18,0,0,0,2.63,8.78l5.09-4.8A11,11,0,0,1,308.12,147.42Zm0,0-6.85-1a18,18,0,0,0,2.63,8.78l5.09-4.8A11,11,0,0,1,308.12,147.42Z"/><path class="cls-3" d="M328.36,198.06A18.26,18.26,0,0,0,318,210.51h7.05a11.41,11.41,0,0,1,4.9-5.71Zm0,0A18.26,18.26,0,0,0,318,210.51h7.05a11.41,11.41,0,0,1,4.9-5.71Zm0,0A18.26,18.26,0,0,0,318,210.51h7.05a11.41,11.41,0,0,1,4.9-5.71Zm7.39-1.58c-.28,0-.55,0-.83,0a17.83,17.83,0,0,0-6.56,1.55A18.26,18.26,0,0,0,318,210.51a18.29,18.29,0,0,0,0,8.41,18.26,18.26,0,0,0,10.33,12.45,17.73,17.73,0,0,0,6.55,1.56c.29,0,.57,0,.86,0a18.24,18.24,0,0,0,0-36.48Zm.74,29.71c-.24,0-.49,0-.74,0a11.39,11.39,0,0,1-5.81-1.58,11.56,11.56,0,0,1-4.88-5.71,11.45,11.45,0,0,1,0-8.41,11.51,11.51,0,0,1,10.69-7.28c.26,0,.51,0,.76,0a11.49,11.49,0,0,1,0,22.94Zm-8.13-28.13A18.26,18.26,0,0,0,318,210.51h7.05a11.41,11.41,0,0,1,4.9-5.71Zm0,0A18.26,18.26,0,0,0,318,210.51h7.05a11.41,11.41,0,0,1,4.9-5.71Zm0,0A18.26,18.26,0,0,0,318,210.51h7.05a11.41,11.41,0,0,1,4.9-5.71Z"/><path class="cls-3" d="M96,210.51a18.23,18.23,0,0,0-17-14l-.69,0a18.24,18.24,0,1,0,0,36.48c.29,0,.57,0,.86,0a17.73,17.73,0,0,0,6.55-1.56A18.26,18.26,0,0,0,96,218.92a18.29,18.29,0,0,0,0-8.41ZM84.06,224.63a11.39,11.39,0,0,1-5.81,1.58c-.25,0-.5,0-.74,0a11.49,11.49,0,0,1-.11-22.93c.28,0,.56,0,.85,0A11.29,11.29,0,0,1,84,204.76a11.53,11.53,0,0,1,5,5.75,11.45,11.45,0,0,1,0,8.41A11.56,11.56,0,0,1,84.06,224.63Z"/><path class="cls-3" d="M112.74,282.67a18,18,0,0,0-2.39-8.55,18.31,18.31,0,0,0-15.83-9.2c-.3,0-.59,0-.88,0a18.21,18.21,0,1,0,19.12,18.21A4,4,0,0,0,112.74,282.67Zm-18.22,12a11.5,11.5,0,1,1,0-23c.24,0,.48,0,.72,0a11.46,11.46,0,0,1,4.25,1.1,11.59,11.59,0,0,1,5.72,6.17,10.54,10.54,0,0,1,.69,2.62,11.75,11.75,0,0,1,.11,1.58,11.49,11.49,0,0,1-11.49,11.5Z"/><path class="cls-3" d="M319.48,264.92a18.13,18.13,0,0,0-9.92,2.95l5.06,4.88h0a11.3,11.3,0,0,1,4.14-1.06l1.59-6.74Zm0,0a18.13,18.13,0,0,0-9.92,2.95l5.06,4.88h0a11.3,11.3,0,0,1,4.14-1.06l1.59-6.74Zm0,0a18.13,18.13,0,0,0-9.92,2.95l5.06,4.88h0a11.3,11.3,0,0,1,4.14-1.06l1.59-6.74Zm7.43,1.59a18,18,0,0,0-6.56-1.56l-.87,0a18.26,18.26,0,0,0-18.22,17.74,4.18,4.18,0,0,0,0,.5,18.24,18.24,0,1,0,25.67-16.65Zm-7.43,28.15A11.49,11.49,0,0,1,308,283.16a11.9,11.9,0,0,1,.11-1.59,10.86,10.86,0,0,1,.73-2.71,11.53,11.53,0,0,1,5.79-6.11h0a11.3,11.3,0,0,1,4.14-1.06c.24,0,.48,0,.72,0A11.52,11.52,0,0,1,331,283.16,11.51,11.51,0,0,1,319.48,294.66Zm0-29.74a18.13,18.13,0,0,0-9.92,2.95l5.06,4.88h0a11.3,11.3,0,0,1,4.14-1.06l1.59-6.74Zm0,0a18.13,18.13,0,0,0-9.92,2.95l5.06,4.88h0a11.3,11.3,0,0,1,4.14-1.06l1.59-6.74Z"/><path class="cls-3" d="M98.35,156.34a11.1,11.1,0,0,1-3.55.83l-1.54,6.76.7,0a18.1,18.1,0,0,0,9.5-2.68Zm0,0a11.1,11.1,0,0,1-3.55.83l-1.54,6.76.7,0a18.1,18.1,0,0,0,9.5-2.68Zm0,0a11.1,11.1,0,0,1-3.55.83l-1.54,6.76.7,0a18.1,18.1,0,0,0,9.5-2.68Zm0,0a11.1,11.1,0,0,1-3.55.83l-1.54,6.76.7,0a18.1,18.1,0,0,0,9.5-2.68Zm0,0a11.1,11.1,0,0,1-3.55.83l-1.54,6.76.7,0a18.1,18.1,0,0,0,9.5-2.68Zm0,0a11.1,11.1,0,0,1-3.55.83l-1.54,6.76.7,0a18.1,18.1,0,0,0,9.5-2.68Zm12.83-16.6a18.23,18.23,0,1,0-24.49,22.7,18.07,18.07,0,0,0,6.57,1.49l.7,0a18.1,18.1,0,0,0,9.5-2.68,18.44,18.44,0,0,0,6-5.94,18.06,18.06,0,0,0,2.73-8.93c0-.23,0-.46,0-.69A17.86,17.86,0,0,0,111.18,139.74Zm-6.77,10.74a11.6,11.6,0,0,1-6.06,5.86,11.1,11.1,0,0,1-3.55.83c-.28,0-.56,0-.84,0a11.5,11.5,0,1,1,0-23,11.49,11.49,0,0,1,11.49,11.49,10.76,10.76,0,0,1-.13,1.71A11.18,11.18,0,0,1,104.41,150.48Zm-6.06,5.86a11.1,11.1,0,0,1-3.55.83l-1.54,6.76.7,0a18.1,18.1,0,0,0,9.5-2.68Zm0,0a11.1,11.1,0,0,1-3.55.83l-1.54,6.76.7,0a18.1,18.1,0,0,0,9.5-2.68Zm0,0a11.1,11.1,0,0,1-3.55.83l-1.54,6.76.7,0a18.1,18.1,0,0,0,9.5-2.68Zm0,0a11.1,11.1,0,0,1-3.55.83l-1.54,6.76.7,0a18.1,18.1,0,0,0,9.5-2.68Zm0,0a11.1,11.1,0,0,1-3.55.83l-1.54,6.76.7,0a18.1,18.1,0,0,0,9.5-2.68Z"/><path class="cls-4" d="M185.39,210.51a15.2,15.2,0,0,0-4.26-8.38q-4.63-4.55-13.08-4.55h-9.69a2.51,2.51,0,0,0-1.85.67,2.44,2.44,0,0,0-.67,1.81v29.88a2.44,2.44,0,0,0,.67,1.81,2.51,2.51,0,0,0,1.85.67h9.69q8.44,0,13.08-4.57a15.52,15.52,0,0,0,4.35-8.93,24.75,24.75,0,0,0,.3-3.95A24.12,24.12,0,0,0,185.39,210.51Zm-17.64,17.66h-6.82V201.83h6.82q10.44,0,12.39,8.68a19.72,19.72,0,0,1,.46,4.46,21,21,0,0,1-.35,3.95Q178.5,228.18,167.75,228.17Z"/><path class="cls-4" d="M222.59,229.45l-4.81-10.53-3.85-8.41-3-6.58-2.27-5a2.65,2.65,0,0,0-1.1-1.24,3.19,3.19,0,0,0-1.62-.44,3.12,3.12,0,0,0-1.6.44,2.62,2.62,0,0,0-1.11,1.24l-.71,1.56-4.57,10-3.84,8.41-4.81,10.53a2.64,2.64,0,0,0-.25,1,2,2,0,0,0,.77,1.58,2.63,2.63,0,0,0,1.75.64,2.29,2.29,0,0,0,1.24-.37,2.2,2.2,0,0,0,.88-1.06l3.27-7.41H215l3.26,7.41a2.28,2.28,0,0,0,.86,1.06,2.17,2.17,0,0,0,1.21.37,2.58,2.58,0,0,0,1.71-.64,2,2,0,0,0,.76-1.58A2.8,2.8,0,0,0,222.59,229.45Zm-23.82-9.68.37-.85,3.37-7.62.35-.79,3.13-7.09,3.15,7.09,1.78,4,2,4.39.38.85Z"/><path class="cls-4" d="M257.79,210.51a19.24,19.24,0,0,0-1.58-5,14.13,14.13,0,0,0-5.61-6.17,18.36,18.36,0,0,0-17.24,0,14.08,14.08,0,0,0-5.61,6.17,18.64,18.64,0,0,0-1.58,5,25.85,25.85,0,0,0-.37,4.52,25.52,25.52,0,0,0,.28,3.89,19.17,19.17,0,0,0,1.69,5.54,14.51,14.51,0,0,0,5.61,6.18,16.4,16.4,0,0,0,8.58,2.17,16.57,16.57,0,0,0,8.64-2.17,14.29,14.29,0,0,0,5.61-6.21,19.36,19.36,0,0,0,1.66-5.51,26.1,26.1,0,0,0,.29-3.95A25.4,25.4,0,0,0,257.79,210.51Zm-7.68,14.59a10,10,0,0,1-8.15,3.56,9.84,9.84,0,0,1-8.08-3.56,13,13,0,0,1-2.59-6.18A24.07,24.07,0,0,1,231,215a23.62,23.62,0,0,1,.4-4.46,12.5,12.5,0,0,1,2.5-5.64,9.88,9.88,0,0,1,8.08-3.53,10,10,0,0,1,8.17,3.53,12.6,12.6,0,0,1,2.49,5.64,25.18,25.18,0,0,1,.09,8.41A13,13,0,0,1,250.11,225.1Z"/></svg>