<svg xmlns="http://www.w3.org/2000/svg" viewBox="0 0 414 522"><defs><style>.cls-1{isolation:isolate;}.cls-2{fill:#fff6d3;}.cls-3{fill:#ffe370;}.cls-4,.cls-8{mix-blend-mode:multiply;}.cls-4{opacity:0.75;}.cls-5{fill:#9f6f00;}.cls-6{fill:#fce679;}.cls-7{fill:#f9e882;}.cls-8{opacity:0.67;}</style></defs><g class="cls-1"><g id="Layer_1" data-name="Layer 1"><path d="M98.57,449.4h-3L84.1,431.87V449.4h-3V426.65h3l11.49,17.61V426.65h3Z"/><path d="M116.45,439.36H106.9v10h-3V426.65H118v2.46H106.9v7.79h9.55Z"/><path d="M137.62,429.11H130.3V449.4h-3V429.11H120v-2.46h17.6Z"/><path d="M165,442.19a8.4,8.4,0,0,1-2.66,5.57,8.77,8.77,0,0,1-6,2,8,8,0,0,1-6.46-2.89,11.65,11.65,0,0,1-2.43-7.74V436.9a12.86,12.86,0,0,1,1.13-5.57,8.51,8.51,0,0,1,3.21-3.7,8.94,8.94,0,0,1,4.81-1.29,8.24,8.24,0,0,1,5.82,2A8.47,8.47,0,0,1,165,434h-3a6.52,6.52,0,0,0-1.7-4,5.1,5.1,0,0,0-3.65-1.23,5.35,5.35,0,0,0-4.5,2.13,9.77,9.77,0,0,0-1.64,6.05v2.21a10,10,0,0,0,1.55,5.89,5,5,0,0,0,4.33,2.19,5.74,5.74,0,0,0,3.83-1.13,6.27,6.27,0,0,0,1.78-3.94Z"/><path d="M167.9,440.79a9.84,9.84,0,0,1,1-4.46,7.26,7.26,0,0,1,2.71-3.07,7.39,7.39,0,0,1,4-1.07,7.13,7.13,0,0,1,5.59,2.39,9.19,9.19,0,0,1,2.13,6.36v.2a10.07,10.07,0,0,1-.95,4.43,7.16,7.16,0,0,1-2.7,3.05,7.48,7.48,0,0,1-4,1.1,7.12,7.12,0,0,1-5.57-2.39A9.18,9.18,0,0,1,167.9,441Zm2.9.35a7.21,7.21,0,0,0,1.31,4.51,4.41,4.41,0,0,0,7,0,7.87,7.87,0,0,0,1.3-4.84,7.2,7.2,0,0,0-1.32-4.5,4.2,4.2,0,0,0-3.51-1.73,4.15,4.15,0,0,0-3.45,1.7A7.83,7.83,0,0,0,170.8,441.14Z"/><path d="M189.63,432.5l.08,1.87a6.26,6.26,0,0,1,5-2.18q3.54,0,4.82,2.71a6.33,6.33,0,0,1,5.4-2.71c3.7,0,5.59,2,5.65,5.89V449.4h-2.89V438.25a3.89,3.89,0,0,0-.83-2.71,3.64,3.64,0,0,0-2.78-.9,3.74,3.74,0,0,0-3.9,3.55V449.4h-2.91V438.33q0-3.69-3.61-3.69a3.87,3.87,0,0,0-3.89,2.42V449.4H186.9V432.5Z"/><path d="M217.68,432.5l.08,1.87a6.26,6.26,0,0,1,5-2.18q3.55,0,4.83,2.71a6.33,6.33,0,0,1,5.39-2.71q5.56,0,5.66,5.89V449.4h-2.89V438.25a3.89,3.89,0,0,0-.83-2.71,3.64,3.64,0,0,0-2.78-.9,3.82,3.82,0,0,0-2.67,1,3.91,3.91,0,0,0-1.24,2.59V449.4h-2.9V438.33c0-2.46-1.21-3.69-3.61-3.69a3.86,3.86,0,0,0-3.89,2.42V449.4H215V432.5Z"/><path d="M253.45,447.73a6.14,6.14,0,0,1-5,2,5.26,5.26,0,0,1-4.11-1.57A6.77,6.77,0,0,1,243,443.5v-11h2.89v10.92q0,3.84,3.12,3.84,3.31,0,4.41-2.47V432.5h2.89v16.9h-2.75Z"/><path d="M263.38,432.5l.1,2.12a6.17,6.17,0,0,1,5.06-2.43q5.35,0,5.41,6V449.4h-2.9V438.22a3.9,3.9,0,0,0-.83-2.71,3.37,3.37,0,0,0-2.56-.87,4.14,4.14,0,0,0-2.46.75,5,5,0,0,0-1.66,2v12h-2.89V432.5Z"/><path d="M278.32,428a1.68,1.68,0,0,1,.43-1.18,1.9,1.9,0,0,1,2.55,0,1.74,1.74,0,0,1-2.55,2.36A1.68,1.68,0,0,1,278.32,428Zm3.13,21.39h-2.9V432.5h2.9Z"/><path d="M290,428.4v4.1h3.16v2.23H290v10.5a2.37,2.37,0,0,0,.42,1.53,1.82,1.82,0,0,0,1.44.5,7.42,7.42,0,0,0,1.38-.18v2.33a8.73,8.73,0,0,1-2.22.31,3.57,3.57,0,0,1-2.92-1.18,5,5,0,0,1-1-3.32V434.73H284V432.5h3.08v-4.1Z"/><path d="M296.54,428a1.68,1.68,0,0,1,.43-1.18,1.58,1.58,0,0,1,1.27-.49,1.62,1.62,0,0,1,1.28.49,1.8,1.8,0,0,1,0,2.36,1.67,1.67,0,0,1-1.28.46,1.63,1.63,0,0,1-1.27-.46A1.68,1.68,0,0,1,296.54,428Zm3.12,21.39h-2.89V432.5h2.89Z"/><path d="M311.3,449.72a7.41,7.41,0,0,1-5.59-2.26,8.38,8.38,0,0,1-2.16-6v-.53a10.11,10.11,0,0,1,1-4.49,7.52,7.52,0,0,1,2.68-3.1,6.8,6.8,0,0,1,3.75-1.11,6.33,6.33,0,0,1,5.12,2.17,9.4,9.4,0,0,1,1.83,6.22v1.2H306.45a6,6,0,0,0,1.46,4,4.6,4.6,0,0,0,3.55,1.54,5,5,0,0,0,2.59-.63,6.47,6.47,0,0,0,1.86-1.65l1.77,1.37A7.1,7.1,0,0,1,311.3,449.72ZM311,434.56a3.88,3.88,0,0,0-2.94,1.27,6.22,6.22,0,0,0-1.47,3.57H315v-.21a5.56,5.56,0,0,0-1.19-3.42A3.62,3.62,0,0,0,311,434.56Z"/><path d="M331.09,444.92a2.13,2.13,0,0,0-.89-1.82,8.46,8.46,0,0,0-3.08-1.12,14.82,14.82,0,0,1-3.48-1.12,5,5,0,0,1-1.91-1.57,3.72,3.72,0,0,1-.61-2.15,4.37,4.37,0,0,1,1.76-3.52,6.88,6.88,0,0,1,4.49-1.43,7.06,7.06,0,0,1,4.66,1.48,4.73,4.73,0,0,1,1.79,3.8h-2.91a2.61,2.61,0,0,0-1-2.05,3.81,3.81,0,0,0-2.54-.86,3.92,3.92,0,0,0-2.47.69A2.15,2.15,0,0,0,324,437a1.74,1.74,0,0,0,.83,1.58,9.79,9.79,0,0,0,3,1,16,16,0,0,1,3.51,1.15,5.16,5.16,0,0,1,2,1.62,4,4,0,0,1,.65,2.31,4.32,4.32,0,0,1-1.82,3.63,7.58,7.58,0,0,1-4.7,1.37,8.49,8.49,0,0,1-3.59-.72,5.88,5.88,0,0,1-2.45-2,4.83,4.83,0,0,1-.88-2.79h2.89a3,3,0,0,0,1.16,2.31,5.38,5.38,0,0,0,5.5.18A2,2,0,0,0,331.09,444.92Z"/><circle class="cls-2" cx="207" cy="221" r="177"/><polygon class="cls-3" points="207 98.76 101.14 159.88 101.14 282.12 207 343.24 312.86 282.12 312.86 159.88 207 98.76"/><g class="cls-4"><path class="cls-5" d="M214,105.76,108.14,166.88V289.12L214,350.24l105.86-61.12V166.88Zm96.83,178.15L214,339.81l-96.83-55.9V172.09L214,116.19l96.83,55.9Z"/></g><path class="cls-6" d="M207,98.76,101.14,159.88V282.12L207,343.24l105.86-61.12V159.88Zm96.83,178.15L207,332.81l-96.83-55.9V165.09L207,109.19l96.83,55.9Z"/><g class="cls-4"><path class="cls-5" d="M214,133l-82.28,47.5v95L214,323l82.28-47.5v-95Zm75.26,138.46L214,314.91l-75.26-43.46v-86.9L214,141.09l75.26,43.46Z"/></g><path class="cls-7" d="M207,126l-82.28,47.5v95L207,316l82.28-47.5v-95Zm75.26,138.46L207,307.91l-75.26-43.46v-86.9L207,134.09l75.26,43.46Z"/><g class="cls-8"><path class="cls-5" d="M154.47,267V193h9.41l18,42.22V193H193v74h-8.95L166,222.78V267Z"/><path class="cls-5" d="M204.27,267V193h30.44v9.32H217.8v21.57h13.8v9.41H217.8V267Z"/><path class="cls-5" d="M249.42,267V203H237.63V193h36.92v10H262.94V267Z"/></g><path d="M149.47,259V185h9.41l18,42.22V185H188v74h-8.95L161,214.78V259Z"/><path d="M199.27,259V185h30.44v9.32H212.8v21.57h13.8v9.41H212.8V259Z"/><path d="M244.42,259V195H232.63V185h36.92v10H257.94V259Z"/></g></g></svg>