<svg id="Layer_1" data-name="Layer 1" xmlns="http://www.w3.org/2000/svg" viewBox="0 0 414 522"><defs><style>.cls-1{fill:#e4ffee;}.cls-2{fill:#519c62;}.cls-3{fill:#fff;}</style></defs><path d="M89.52,442.23l.43,3,.64-2.7,4.5-15.88h2.53l4.4,15.88.62,2.75.48-3.06,3.54-15.57h3l-5.51,22.75h-2.74l-4.69-16.57-.35-1.74L96,432.83,91.16,449.4H88.42l-5.5-22.75h3Z"/><path d="M119.08,449.72a7.43,7.43,0,0,1-5.6-2.26,8.42,8.42,0,0,1-2.15-6v-.53a10.11,10.11,0,0,1,1-4.49,7.54,7.54,0,0,1,2.69-3.1,6.79,6.79,0,0,1,3.74-1.11,6.31,6.31,0,0,1,5.12,2.17,9.4,9.4,0,0,1,1.83,6.22v1.2H114.22a6,6,0,0,0,1.46,4,4.61,4.61,0,0,0,3.55,1.54,5,5,0,0,0,2.6-.63,6.47,6.47,0,0,0,1.86-1.65l1.76,1.37A7.08,7.08,0,0,1,119.08,449.72Zm-.36-15.16a3.88,3.88,0,0,0-2.94,1.27,6.22,6.22,0,0,0-1.47,3.57h8.47v-.21a5.5,5.5,0,0,0-1.19-3.42A3.61,3.61,0,0,0,118.72,434.56Z"/><path d="M143.33,441.14a10.12,10.12,0,0,1-1.78,6.23,5.71,5.71,0,0,1-4.78,2.35,5.91,5.91,0,0,1-5-2.27l-.14,1.95H129v-24h2.89v9a5.83,5.83,0,0,1,4.82-2.17,5.72,5.72,0,0,1,4.84,2.32,10.39,10.39,0,0,1,1.76,6.38Zm-2.89-.33a7.8,7.8,0,0,0-1.14-4.56,3.79,3.79,0,0,0-3.28-1.61,4.23,4.23,0,0,0-4.11,2.65v7.32a4.35,4.35,0,0,0,4.14,2.65,3.74,3.74,0,0,0,3.23-1.61A8.28,8.28,0,0,0,140.44,440.81Z"/><path d="M150.88,436.62h2.17a4.79,4.79,0,0,0,3.22-1.08,3.59,3.59,0,0,0,1.17-2.82q0-4-4-4a4.12,4.12,0,0,0-3,1.07,3.76,3.76,0,0,0-1.12,2.83h-2.89a5.79,5.79,0,0,1,2-4.49A8.14,8.14,0,0,1,158.5,428a6.17,6.17,0,0,1,1.83,4.74,5,5,0,0,1-1,2.87,5.82,5.82,0,0,1-2.62,2.08,5.65,5.65,0,0,1,2.9,2,5.5,5.5,0,0,1,1,3.36,6.22,6.22,0,0,1-2,4.86,7.48,7.48,0,0,1-5.2,1.8,7.66,7.66,0,0,1-5.21-1.74,5.74,5.74,0,0,1-2-4.58h2.91a3.73,3.73,0,0,0,1.17,2.88,4.45,4.45,0,0,0,3.14,1.08,4.37,4.37,0,0,0,3.2-1.1,4.19,4.19,0,0,0,1.11-3.14,3.79,3.79,0,0,0-1.22-3,5.28,5.28,0,0,0-3.51-1.1h-2.17Z"/><path d="M190.05,442.19a8.37,8.37,0,0,1-2.67,5.57,8.75,8.75,0,0,1-6,2,8,8,0,0,1-6.46-2.89,11.65,11.65,0,0,1-2.43-7.74V436.9a13,13,0,0,1,1.13-5.57,8.47,8.47,0,0,1,3.22-3.7,8.9,8.9,0,0,1,4.81-1.29,8.23,8.23,0,0,1,5.81,2,8.43,8.43,0,0,1,2.55,5.6h-3a6.51,6.51,0,0,0-1.69-4,5.12,5.12,0,0,0-3.65-1.23,5.37,5.37,0,0,0-4.51,2.13,9.77,9.77,0,0,0-1.63,6.05v2.21a10,10,0,0,0,1.54,5.89,5,5,0,0,0,4.33,2.19,5.75,5.75,0,0,0,3.84-1.13,6.26,6.26,0,0,0,1.77-3.94Z"/><path d="M192.92,440.79a10,10,0,0,1,1-4.46,7.28,7.28,0,0,1,2.72-3.07,7.36,7.36,0,0,1,4-1.07,7.1,7.1,0,0,1,5.59,2.39,9.19,9.19,0,0,1,2.13,6.36v.2a10.07,10.07,0,0,1-.94,4.43,7.12,7.12,0,0,1-2.71,3.05,7.46,7.46,0,0,1-4,1.1,7.14,7.14,0,0,1-5.57-2.39,9.18,9.18,0,0,1-2.13-6.33Zm2.91.35a7.21,7.21,0,0,0,1.3,4.51,4.41,4.41,0,0,0,7,0,7.87,7.87,0,0,0,1.3-4.84,7.2,7.2,0,0,0-1.32-4.5,4.39,4.39,0,0,0-7,0A7.9,7.9,0,0,0,195.83,441.14Z"/><path d="M214.66,432.5l.07,1.87a6.28,6.28,0,0,1,5-2.18q3.54,0,4.83,2.71a6.38,6.38,0,0,1,2.19-2,6.5,6.5,0,0,1,3.2-.75q5.57,0,5.65,5.89V449.4h-2.89V438.25a3.89,3.89,0,0,0-.82-2.71,3.67,3.67,0,0,0-2.79-.9,3.74,3.74,0,0,0-3.9,3.55V449.4h-2.91V438.33q0-3.69-3.61-3.69a3.88,3.88,0,0,0-3.89,2.42V449.4h-2.89V432.5Z"/><path d="M254.27,441.14a10.11,10.11,0,0,1-1.77,6.22,5.67,5.67,0,0,1-4.78,2.36,6.16,6.16,0,0,1-4.84-2v8.14H240V432.5h2.64l.15,1.87a6,6,0,0,1,4.9-2.18,5.76,5.76,0,0,1,4.82,2.29,10.24,10.24,0,0,1,1.78,6.39Zm-2.89-.33a7.51,7.51,0,0,0-1.22-4.52,4,4,0,0,0-3.35-1.65,4.24,4.24,0,0,0-3.93,2.33V445a4.23,4.23,0,0,0,4,2.32,3.91,3.91,0,0,0,3.31-1.65A8.14,8.14,0,0,0,251.38,440.81Z"/><path d="M268.38,449.4a5.73,5.73,0,0,1-.41-1.78,6.45,6.45,0,0,1-4.81,2.1,6,6,0,0,1-4.11-1.42,4.58,4.58,0,0,1-1.6-3.58,4.77,4.77,0,0,1,2-4.1,9.42,9.42,0,0,1,5.65-1.47h2.81v-1.32a3.28,3.28,0,0,0-.9-2.42,3.66,3.66,0,0,0-2.68-.9,4.22,4.22,0,0,0-2.59.78,2.33,2.33,0,0,0-1.05,1.9h-2.9a4,4,0,0,1,.9-2.45,6.07,6.07,0,0,1,2.43-1.87,8.38,8.38,0,0,1,3.39-.68,6.64,6.64,0,0,1,4.57,1.46,5.23,5.23,0,0,1,1.72,4v7.78a9.39,9.39,0,0,0,.6,3.7v.25Zm-4.8-2.2a5.11,5.11,0,0,0,2.58-.7,4.24,4.24,0,0,0,1.76-1.83V441.2h-2.26q-5.32,0-5.32,3.11a2.65,2.65,0,0,0,.91,2.13A3.48,3.48,0,0,0,263.58,447.2Z"/><path d="M278.08,432.5l.09,2.12a6.17,6.17,0,0,1,5.06-2.43q5.37,0,5.41,6V449.4h-2.89V438.22a3.9,3.9,0,0,0-.84-2.71,3.33,3.33,0,0,0-2.55-.87,4.17,4.17,0,0,0-2.47.75,5.07,5.07,0,0,0-1.66,2v12h-2.89V432.5Z"/><path d="M293,428a1.68,1.68,0,0,1,.43-1.18,1.58,1.58,0,0,1,1.27-.49,1.62,1.62,0,0,1,1.28.49,1.8,1.8,0,0,1,0,2.36,1.67,1.67,0,0,1-1.28.46,1.63,1.63,0,0,1-1.27-.46A1.68,1.68,0,0,1,293,428Zm3.12,21.39h-2.89V432.5h2.89Z"/><path d="M307.78,449.72a7.39,7.39,0,0,1-5.59-2.26,8.38,8.38,0,0,1-2.16-6v-.53a10.11,10.11,0,0,1,1-4.49,7.54,7.54,0,0,1,2.69-3.1,6.79,6.79,0,0,1,3.74-1.11,6.33,6.33,0,0,1,5.13,2.17,9.4,9.4,0,0,1,1.83,6.22v1.2H302.92a6,6,0,0,0,1.46,4,4.62,4.62,0,0,0,3.56,1.54,5,5,0,0,0,2.59-.63,6.47,6.47,0,0,0,1.86-1.65l1.77,1.37A7.11,7.11,0,0,1,307.78,449.72Zm-.36-15.16a3.9,3.9,0,0,0-2.94,1.27A6.15,6.15,0,0,0,303,439.4h8.46v-.21a5.56,5.56,0,0,0-1.18-3.42A3.63,3.63,0,0,0,307.42,434.56Z"/><path d="M327.56,444.92a2.12,2.12,0,0,0-.88-1.82A8.54,8.54,0,0,0,323.6,442a14.82,14.82,0,0,1-3.48-1.12,4.94,4.94,0,0,1-1.91-1.57,3.73,3.73,0,0,1-.62-2.15,4.4,4.4,0,0,1,1.76-3.52,6.9,6.9,0,0,1,4.49-1.43,7.08,7.08,0,0,1,4.67,1.48,4.73,4.73,0,0,1,1.79,3.8h-2.91a2.62,2.62,0,0,0-1-2.05,3.79,3.79,0,0,0-2.54-.86,3.91,3.91,0,0,0-2.46.69,2.16,2.16,0,0,0-.9,1.79,1.76,1.76,0,0,0,.83,1.58,9.9,9.9,0,0,0,3,1,15.66,15.66,0,0,1,3.51,1.15,5.09,5.09,0,0,1,2,1.62,3.93,3.93,0,0,1,.65,2.31,4.31,4.31,0,0,1-1.81,3.63,7.62,7.62,0,0,1-4.7,1.37,8.51,8.51,0,0,1-3.6-.72,5.85,5.85,0,0,1-2.44-2,4.83,4.83,0,0,1-.88-2.79h2.89a3,3,0,0,0,1.16,2.31,5.38,5.38,0,0,0,5.5.18A2,2,0,0,0,327.56,444.92Z"/><circle class="cls-1" cx="207" cy="221" r="177"/><path class="cls-2" d="M126,300a113.51,113.51,0,0,0,61.92,32.6,145.83,145.83,0,0,1-36-47.49A136.43,136.43,0,0,0,126,300Z"/><path class="cls-2" d="M120.21,293.58a145.68,145.68,0,0,1,28.23-16.35,148,148,0,0,1-10.61-47.93l-43.71,0A112.09,112.09,0,0,0,120.21,293.58Z"/><path class="cls-2" d="M202.71,264.76V229.28l-56.3,0a139.41,139.41,0,0,0,10,44.7A151.16,151.16,0,0,1,202.71,264.76Z"/><path class="cls-2" d="M202.71,333.49V273.33a141.68,141.68,0,0,0-42.88,8.53A140.24,140.24,0,0,0,202.71,333.49Z"/><path class="cls-2" d="M149.13,163.1a147.54,147.54,0,0,1,38.79-53.66,113.16,113.16,0,0,0-65.87,36.84A139.39,139.39,0,0,0,149.13,163.1Z"/><path class="cls-2" d="M202.71,220.7V184.86a147.73,147.73,0,0,1-48.8-10.35,141.68,141.68,0,0,0-7.78,46.24Z"/><path class="cls-2" d="M137.56,220.75A150.12,150.12,0,0,1,146,171.1a148,148,0,0,1-29.38-18.18A112,112,0,0,0,93.8,220.77Z"/><path class="cls-2" d="M224.49,332.82a113.09,113.09,0,0,0,65-34.35,136.88,136.88,0,0,0-27.78-15.1A145.76,145.76,0,0,1,224.49,332.82Z"/><path class="cls-2" d="M295.11,292a112.11,112.11,0,0,0,24.78-62.77l-45,0A148.61,148.61,0,0,1,265,275.47,145.7,145.7,0,0,1,295.11,292Z"/><path class="cls-2" d="M275.15,220.68l45.05,0a112.1,112.1,0,0,0-21.55-66A148.1,148.1,0,0,1,267.3,173,150.39,150.39,0,0,1,275.15,220.68Z"/><path class="cls-2" d="M202.71,176.28V108.51a139.41,139.41,0,0,0-45.71,58A139.17,139.17,0,0,0,202.71,176.28Z"/><path class="cls-2" d="M211.28,176.39a139.29,139.29,0,0,0,45.09-8.31,139.13,139.13,0,0,0-45.09-58.6Z"/><path class="cls-2" d="M264.34,164.91a140.15,140.15,0,0,0,29-17,112.61,112.61,0,0,0-68.89-38.74A147.44,147.44,0,0,1,264.34,164.91Z"/><path class="cls-2" d="M211.28,220.7l55.29,0a141.3,141.3,0,0,0-7.25-44.57,147.75,147.75,0,0,1-48,8.86Z"/><path class="cls-2" d="M253.59,280.41a141.62,141.62,0,0,0-42.31-7.19v59.29A139.77,139.77,0,0,0,253.59,280.41Z"/><path class="cls-2" d="M256.93,272.51a140.39,140.39,0,0,0,9.38-43.28l-55,.05v35.38A150.47,150.47,0,0,1,256.93,272.51Z"/><rect class="cls-3" x="108.93" y="189.17" width="196.13" height="63.65" rx="20.1"/><path d="M167.56,206.21a2,2,0,0,1,1.14-.33,2.1,2.1,0,0,1,1.41.52,1.73,1.73,0,0,1,.61,1.37,2.15,2.15,0,0,1-.17.85l-9.32,26.07a2.29,2.29,0,0,1-.93,1.1,2.69,2.69,0,0,1-1.39.38,2.6,2.6,0,0,1-1.35-.38,2.07,2.07,0,0,1-.89-1.1L149,212.92l-7.84,21.77a2.07,2.07,0,0,1-.89,1.1,2.62,2.62,0,0,1-2.72,0,2.31,2.31,0,0,1-.91-1.1l-9.32-26.07a2.15,2.15,0,0,1-.17-.85,1.72,1.72,0,0,1,.63-1.37,2.32,2.32,0,0,1,1.52-.52,2.12,2.12,0,0,1,1.16.33,2,2,0,0,1,.78,1L139,229.67,147,207.44a2.11,2.11,0,0,1,.82-1.1A2.24,2.24,0,0,1,149,206a2,2,0,0,1,1.22.4,2.47,2.47,0,0,1,.84,1.12l7.77,22.4,7.93-22.65A2.06,2.06,0,0,1,167.56,206.21Z"/><path d="M189.87,231.15a1.76,1.76,0,0,1,.38,1.18,2.41,2.41,0,0,1-1.52,2.06,13.92,13.92,0,0,1-6.58,1.78,10.4,10.4,0,0,1-7.72-2.85,10.57,10.57,0,0,1-2.82-7.78,12.26,12.26,0,0,1,1.24-5.62,9.17,9.17,0,0,1,3.5-3.79,9.8,9.8,0,0,1,5.13-1.35,8.4,8.4,0,0,1,6.54,2.65,10.33,10.33,0,0,1,2.4,7.18c0,1.12-.5,1.68-1.52,1.68h-13q.42,6.54,6.28,6.54a7.81,7.81,0,0,0,2.7-.42,19.93,19.93,0,0,0,2.41-1.1c.08-.05.31-.17.69-.35a2.23,2.23,0,0,1,1-.28A1.19,1.19,0,0,1,189.87,231.15Zm-12.23-11.69a7.27,7.27,0,0,0-1.77,4.39h10.88a7.05,7.05,0,0,0-1.45-4.41,4.67,4.67,0,0,0-3.74-1.54A5.14,5.14,0,0,0,177.64,219.46Z"/><path d="M210.92,216.08a8.79,8.79,0,0,1,3.23,3.72,12.8,12.8,0,0,1,1.16,5.61,13,13,0,0,1-1.16,5.61,8.92,8.92,0,0,1-3.25,3.8,8.53,8.53,0,0,1-4.74,1.35,8.19,8.19,0,0,1-4.1-1,6.51,6.51,0,0,1-2.7-2.84V234a2,2,0,0,1-.56,1.5,2.09,2.09,0,0,1-1.54.57,2.18,2.18,0,0,1-1.57-.57,2,2,0,0,1-.59-1.5V207.94a1.86,1.86,0,0,1,.62-1.47,2.24,2.24,0,0,1,1.58-.55,2.09,2.09,0,0,1,1.5.53,1.82,1.82,0,0,1,.56,1.41v10.8a6.63,6.63,0,0,1,2.7-2.87,8.09,8.09,0,0,1,4.1-1A8.69,8.69,0,0,1,210.92,216.08Zm-1.49,14.77a8.59,8.59,0,0,0,1.54-5.44,8.3,8.3,0,0,0-1.52-5.34,5.23,5.23,0,0,0-4.31-1.88,5.16,5.16,0,0,0-4.28,1.9,10.47,10.47,0,0,0,0,10.8,5.13,5.13,0,0,0,4.28,1.9A5.19,5.19,0,0,0,209.43,230.85Z"/><path d="M249.23,223.19a8.3,8.3,0,0,1-1.33,10.74,11.25,11.25,0,0,1-7.36,2.24,15.65,15.65,0,0,1-5.25-.89,12.31,12.31,0,0,1-4.24-2.45,2.06,2.06,0,0,1-.85-1.68,2,2,0,0,1,.42-1.29,1.27,1.27,0,0,1,1-.53,2.58,2.58,0,0,1,1.43.55,16,16,0,0,0,3.57,2.05,10.15,10.15,0,0,0,3.77.69q6,0,6-5.1a4.46,4.46,0,0,0-1.58-3.74,7.66,7.66,0,0,0-4.79-1.24h-2.32a1.6,1.6,0,0,1-1.26-.53,1.81,1.81,0,0,1-.47-1.24,1.76,1.76,0,0,1,.47-1.2,1.57,1.57,0,0,1,1.26-.53h1.65a7.41,7.41,0,0,0,4.7-1.29,4.53,4.53,0,0,0,1.63-3.77,4.42,4.42,0,0,0-1.33-3.42,5.3,5.3,0,0,0-3.74-1.22,11.53,11.53,0,0,0-7.08,2.74,2.72,2.72,0,0,1-1.44.55,1.27,1.27,0,0,1-1-.53,2,2,0,0,1-.42-1.29,2.09,2.09,0,0,1,.84-1.69,12.39,12.39,0,0,1,4.2-2.44,14.93,14.93,0,0,1,5.08-.89,10,10,0,0,1,6.65,2.07,7,7,0,0,1,2.46,5.61,7.78,7.78,0,0,1-1.24,4.41,7,7,0,0,1-3.52,2.72A7.51,7.51,0,0,1,249.23,223.19Z"/><path d="M256.63,235.32a2.58,2.58,0,0,1-.78-1.94,2.65,2.65,0,0,1,.78-2,2.61,2.61,0,0,1,1.92-.78,2.55,2.55,0,0,1,1.9.78,2.68,2.68,0,0,1,.76,2,2.6,2.6,0,0,1-.76,1.94,2.57,2.57,0,0,1-1.9.76A2.63,2.63,0,0,1,256.63,235.32Z"/><path d="M268.32,232.33q-2.73-3.89-2.72-11.31t2.72-11.35a10,10,0,0,1,15.82,0q2.72,3.87,2.72,11.33t-2.72,11.35a10,10,0,0,1-15.82,0ZM281,229.88c1-1.88,1.52-4.85,1.52-8.9s-.5-7-1.52-8.88a5.45,5.45,0,0,0-9.53,0q-1.51,2.81-1.52,8.88t1.52,8.88a5.42,5.42,0,0,0,9.53,0Z"/></svg>