<svg id="Layer_1" data-name="Layer 1" xmlns="http://www.w3.org/2000/svg" viewBox="0 0 414 522"><defs><style>.cls-1{fill:#f4f4ff;}.cls-2{fill:#5856d6;}</style></defs><path d="M100.84,442.19a8.4,8.4,0,0,1-2.66,5.57,8.77,8.77,0,0,1-6,2,8,8,0,0,1-6.46-2.89,11.65,11.65,0,0,1-2.43-7.74V436.9a13,13,0,0,1,1.13-5.57,8.51,8.51,0,0,1,3.21-3.7,8.94,8.94,0,0,1,4.81-1.29,8.24,8.24,0,0,1,5.82,2,8.47,8.47,0,0,1,2.54,5.6h-3a6.52,6.52,0,0,0-1.7-4,5.1,5.1,0,0,0-3.65-1.23,5.36,5.36,0,0,0-4.5,2.13A9.77,9.77,0,0,0,86.34,437v2.21a10,10,0,0,0,1.55,5.89,5,5,0,0,0,4.33,2.19,5.72,5.72,0,0,0,3.83-1.13,6.21,6.21,0,0,0,1.78-3.94Z"/><path d="M112.66,435.09a9,9,0,0,0-1.43-.11,3.8,3.8,0,0,0-3.85,2.42v12h-2.9V432.5h2.82l0,1.95a4.51,4.51,0,0,1,4-2.26,3.09,3.09,0,0,1,1.28.21Z"/><path d="M121.12,445.17l3.94-12.67h3.1L121.36,452c-1,2.82-2.72,4.22-5,4.22l-.54,0-1.08-.21v-2.34l.78.06a3.9,3.9,0,0,0,2.29-.59,4.27,4.27,0,0,0,1.35-2.17l.64-1.72-6-16.72h3.16Z"/><path d="M145,441.14a10.11,10.11,0,0,1-1.77,6.22,5.67,5.67,0,0,1-4.78,2.36,6.2,6.2,0,0,1-4.85-2v8.14h-2.89V432.5h2.65l.14,1.87a6,6,0,0,1,4.9-2.18,5.76,5.76,0,0,1,4.82,2.29,10.24,10.24,0,0,1,1.78,6.39Zm-2.9-.33a7.51,7.51,0,0,0-1.21-4.52,4,4,0,0,0-3.35-1.65,4.26,4.26,0,0,0-3.94,2.33V445a4.26,4.26,0,0,0,4,2.32,3.91,3.91,0,0,0,3.31-1.65A8.14,8.14,0,0,0,142.12,440.81Z"/><path d="M152.61,428.4v4.1h3.16v2.23h-3.16v10.5a2.37,2.37,0,0,0,.42,1.53,1.8,1.8,0,0,0,1.44.5,7.23,7.23,0,0,0,1.37-.18v2.33a8.73,8.73,0,0,1-2.22.31,3.58,3.58,0,0,1-2.92-1.18,5.06,5.06,0,0,1-1-3.32V434.73h-3.08V432.5h3.08v-4.1Z"/><path d="M158.06,440.79a10,10,0,0,1,1-4.46,7.28,7.28,0,0,1,2.72-3.07,7.38,7.38,0,0,1,4-1.07,7.1,7.1,0,0,1,5.59,2.39,9.19,9.19,0,0,1,2.13,6.36v.2a10.07,10.07,0,0,1-.94,4.43,7.12,7.12,0,0,1-2.71,3.05,7.45,7.45,0,0,1-4,1.1,7.11,7.11,0,0,1-5.57-2.39,9.14,9.14,0,0,1-2.14-6.33Zm2.91.35a7.21,7.21,0,0,0,1.3,4.51,4.42,4.42,0,0,0,7,0,7.94,7.94,0,0,0,1.29-4.84,7.2,7.2,0,0,0-1.32-4.5,4.39,4.39,0,0,0-7,0A7.9,7.9,0,0,0,161,441.14Z"/><path d="M188.45,440.5v8.9h-3V426.65h8.39a8.47,8.47,0,0,1,5.86,1.91,6.46,6.46,0,0,1,2.11,5.05,6.37,6.37,0,0,1-2.07,5.1,8.81,8.81,0,0,1-5.93,1.79Zm0-2.46h5.39a5.36,5.36,0,0,0,3.69-1.13,4.14,4.14,0,0,0,1.28-3.28,4.24,4.24,0,0,0-1.28-3.25,5,5,0,0,0-3.51-1.27h-5.57Z"/><path d="M215.62,447.73a6.1,6.1,0,0,1-5,2,5.3,5.3,0,0,1-4.12-1.57,6.87,6.87,0,0,1-1.43-4.65v-11H208v10.92q0,3.84,3.12,3.84,3.31,0,4.41-2.47V432.5h2.89v16.9h-2.75Z"/><path d="M237.14,441.14a10.06,10.06,0,0,1-1.78,6.23,5.71,5.71,0,0,1-4.78,2.35,5.91,5.91,0,0,1-5-2.27l-.14,1.95h-2.65v-24h2.89v9a5.86,5.86,0,0,1,4.83-2.17,5.71,5.71,0,0,1,4.83,2.32,10.39,10.39,0,0,1,1.76,6.38Zm-2.89-.33a7.8,7.8,0,0,0-1.14-4.56,3.79,3.79,0,0,0-3.28-1.61,4.23,4.23,0,0,0-4.11,2.65v7.32a4.35,4.35,0,0,0,4.14,2.65,3.72,3.72,0,0,0,3.23-1.61A8.28,8.28,0,0,0,234.25,440.81Z"/><path d="M243.92,449.4H241v-24h2.89Z"/><path d="M248.56,428a1.73,1.73,0,0,1,.43-1.18,1.6,1.6,0,0,1,1.28-.49,1.63,1.63,0,0,1,1.28.49,1.65,1.65,0,0,1-1.28,2.82,1.66,1.66,0,0,1-1.28-.46A1.73,1.73,0,0,1,248.56,428Zm3.13,21.39H248.8V432.5h2.89Z"/><path d="M266.16,444.92a2.13,2.13,0,0,0-.89-1.82A8.47,8.47,0,0,0,262.2,442a14.77,14.77,0,0,1-3.49-1.12,5,5,0,0,1-1.91-1.57,3.72,3.72,0,0,1-.61-2.15,4.37,4.37,0,0,1,1.76-3.52,6.88,6.88,0,0,1,4.49-1.43,7.06,7.06,0,0,1,4.66,1.48,4.73,4.73,0,0,1,1.79,3.8H266a2.61,2.61,0,0,0-1-2.05,3.81,3.81,0,0,0-2.54-.86,3.94,3.94,0,0,0-2.47.69,2.18,2.18,0,0,0-.89,1.79,1.74,1.74,0,0,0,.83,1.58,9.9,9.9,0,0,0,3,1,16,16,0,0,1,3.51,1.15,5.16,5.16,0,0,1,2,1.62,4,4,0,0,1,.65,2.31,4.32,4.32,0,0,1-1.82,3.63,7.58,7.58,0,0,1-4.7,1.37,8.49,8.49,0,0,1-3.59-.72,5.88,5.88,0,0,1-2.45-2,4.83,4.83,0,0,1-.88-2.79h2.89a3,3,0,0,0,1.16,2.31,5.38,5.38,0,0,0,5.5.18A2,2,0,0,0,266.16,444.92Z"/><path d="M275.7,434.54a6.15,6.15,0,0,1,5-2.35q5.37,0,5.41,6V449.4h-2.89V438.22a3.9,3.9,0,0,0-.84-2.71,3.35,3.35,0,0,0-2.55-.87,4.17,4.17,0,0,0-2.47.75,5.07,5.07,0,0,0-1.66,2v12h-2.89v-24h2.89Z"/><path d="M297.45,449.72a7.41,7.41,0,0,1-5.59-2.26,8.38,8.38,0,0,1-2.16-6v-.53a10.11,10.11,0,0,1,1-4.49,7.54,7.54,0,0,1,2.69-3.1,6.79,6.79,0,0,1,3.74-1.11,6.33,6.33,0,0,1,5.13,2.17,9.4,9.4,0,0,1,1.83,6.22v1.2H292.59a6.07,6.07,0,0,0,1.46,4,4.63,4.63,0,0,0,3.56,1.54,5,5,0,0,0,2.59-.63,6.47,6.47,0,0,0,1.86-1.65l1.77,1.37A7.1,7.1,0,0,1,297.45,449.72Zm-.36-15.16a3.88,3.88,0,0,0-2.93,1.27,6.16,6.16,0,0,0-1.47,3.57h8.47v-.21a5.56,5.56,0,0,0-1.19-3.42A3.63,3.63,0,0,0,297.09,434.56Z"/><path d="M315.56,435.09a9,9,0,0,0-1.42-.11,3.82,3.82,0,0,0-3.86,2.42v12h-2.89V432.5h2.81l.05,1.95a4.5,4.5,0,0,1,4-2.26,3.06,3.06,0,0,1,1.28.21Z"/><path d="M328.06,444.92a2.12,2.12,0,0,0-.88-1.82A8.46,8.46,0,0,0,324.1,442a14.82,14.82,0,0,1-3.48-1.12,4.94,4.94,0,0,1-1.91-1.57,3.73,3.73,0,0,1-.62-2.15,4.4,4.4,0,0,1,1.76-3.52,6.9,6.9,0,0,1,4.49-1.43,7.07,7.07,0,0,1,4.67,1.48,4.73,4.73,0,0,1,1.79,3.8h-2.91a2.62,2.62,0,0,0-1-2.05,3.79,3.79,0,0,0-2.54-.86,3.91,3.91,0,0,0-2.46.69A2.16,2.16,0,0,0,321,437a1.76,1.76,0,0,0,.83,1.58,9.9,9.9,0,0,0,3,1,15.66,15.66,0,0,1,3.51,1.15,5.09,5.09,0,0,1,2,1.62,3.93,3.93,0,0,1,.65,2.31,4.31,4.31,0,0,1-1.81,3.63,7.62,7.62,0,0,1-4.7,1.37,8.54,8.54,0,0,1-3.6-.72,5.85,5.85,0,0,1-2.44-2,4.83,4.83,0,0,1-.88-2.79h2.89a3,3,0,0,0,1.16,2.31,5.38,5.38,0,0,0,5.5.18A2,2,0,0,0,328.06,444.92Z"/><circle class="cls-1" cx="207" cy="221" r="177"/><path class="cls-2" d="M200.46,324.46a103.48,103.48,0,1,1,7.84-206.68,5.06,5.06,0,1,1-.74,10.09,93.37,93.37,0,1,0,75.88,136.25,5.06,5.06,0,1,1,9,4.67A103.58,103.58,0,0,1,200.46,324.46Z"/><path class="cls-2" d="M246.09,133.71c-19.82,1.91-45.24,7.41-62.32,15.83l18.93-27.32L199.78,89.1C210.45,104.88,229.82,122.24,246.09,133.71Z"/><path class="cls-2" d="M174.23,269.13l-.1-.31H174l-.18,0a9.59,9.59,0,0,1-7-9.57q0-28.67,0-57.33v-19.1a9.89,9.89,0,0,1,.33-2.81,9.41,9.41,0,0,1,9.58-7.1h46.67a4.45,4.45,0,0,1,3.33,1.39c6.51,6.55,11.92,12,17,17a4.72,4.72,0,0,1,1.46,3.58q0,12,0,24v16.29q0,12,0,24.07a9.44,9.44,0,0,1-5.25,8.91,6.91,6.91,0,0,1-1.49.55,7.52,7.52,0,0,0-1.16.4l-.11.05Zm2.74-89.3c-2.31,0-3.18.86-3.18,3.15v76.34a2.52,2.52,0,0,0,2.82,2.86h58.86a2.52,2.52,0,0,0,2.8-2.78V240.76q0-21.42,0-42.83a1.07,1.07,0,0,0,0-.25h-.22l-5.49,0h-5.14c-4.31,0-7-2.67-7-7V188.6c0-2.72,0-5.53,0-8.3,0-.35,0-.43-.05-.44a1,1,0,0,0-.44-.05q-13.69,0-27.35,0Z"/><path class="cls-2" d="M223.43,173.37a3.92,3.92,0,0,1,3,1.25q8.49,8.53,17,17a4.19,4.19,0,0,1,1.32,3.23c0,10.41,0,20.83,0,31.24q0,16.56,0,33.11a9,9,0,0,1-5,8.47c-.84.45-1.8.54-2.64.94H174.59c-.09-.3-.4-.27-.61-.33a9.08,9.08,0,0,1-6.65-9.08q0-38.22,0-76.44a9.19,9.19,0,0,1,.32-2.66,8.9,8.9,0,0,1,9.09-6.74q23.33,0,46.67,0h0m-31.51,6H177c-2.6,0-3.68,1.07-3.68,3.65v76.34a3,3,0,0,0,3.32,3.36h58.86a3,3,0,0,0,3.3-3.28q0-30.73,0-61.47c0-.61-.17-.75-.74-.75h0l-5.49,0h-5.11c-4,0-6.5-2.46-6.5-6.47,0-3.47,0-6.94,0-10.41,0-.82-.2-1-1-1h0q-14,0-28,0m31.51-7H176.74a9.87,9.87,0,0,0-10,7.46,10.05,10.05,0,0,0-.36,2.94v19.15q0,28.65,0,57.29a10.07,10.07,0,0,0,7.4,10h0l.12.35h63.45l.2-.1a7.18,7.18,0,0,1,1.08-.37,7.65,7.65,0,0,0,1.6-.59,9.92,9.92,0,0,0,5.51-9.35q0-11.9,0-23.78V218.79c0-7.84,0-15.95,0-23.92a5.21,5.21,0,0,0-1.61-3.94c-5.08-5-10.49-10.45-17-17a4.93,4.93,0,0,0-3.67-1.54Zm-31.51,8q14,0,28,0h0c-.05,2.75,0,5.53,0,8.22v2.19c0,4.54,3,7.47,7.5,7.47h5.11l5.26,0q0,21.63,0,43.26v18a2,2,0,0,1-2.3,2.28H176.61c-1.58,0-2.31-.75-2.32-2.36V183c0-2,.63-2.65,2.68-2.65h14.95Z"/><path class="cls-2" d="M180.16,221.53a1.49,1.49,0,0,1-1.14-.36,1.46,1.46,0,0,1-.29-1.12c.06-1.28.06-2.63,0-4.14a1.32,1.32,0,0,1,.28-1,1.38,1.38,0,0,1,1.06-.33h43.48l8.43,0h0a1.14,1.14,0,0,1,1.36,1.37c-.06,1.39-.06,2.82,0,4.24a1.14,1.14,0,0,1-1.34,1.37l-15.59,0H195.3q-7.56,0-15.12,0Z"/><path class="cls-2" d="M232,215c.66,0,.86.16.83.85-.06,1.42-.06,2.85,0,4.28,0,.69-.16.85-.84.85h0l-15.35,0H195q-7.44,0-14.86,0h0c-.75,0-1-.18-.93-.95.07-1.4.06-2.79,0-4.19,0-.69.16-.85.84-.85h43.38l8.53,0h0m0-1h0l-8.52,0H180.08a1.91,1.91,0,0,0-1.43.48,1.83,1.83,0,0,0-.42,1.42c.06,1.47.06,2.81,0,4.08a1.9,1.9,0,0,0,.43,1.5,1.93,1.93,0,0,0,1.5.51L195,222h21.59L232,222h0a1.9,1.9,0,0,0,1.43-.48,1.84,1.84,0,0,0,.43-1.42c-.06-1.4-.06-2.81,0-4.19a1.79,1.79,0,0,0-.43-1.41A1.87,1.87,0,0,0,232,214Z"/><path class="cls-2" d="M180.17,236.41a1.21,1.21,0,0,1-1.44-1.48c.06-1.3.06-2.65,0-4.13a1.34,1.34,0,0,1,.28-1.05,1.4,1.4,0,0,1,1.06-.33l24.13,0h19.43c2.78,0,5.56,0,8.35,0h0a1.4,1.4,0,0,1,1.07.33,1.37,1.37,0,0,1,.29,1c-.06,1.4-.06,2.82,0,4.24a1.15,1.15,0,0,1-1.35,1.38q-7.58,0-15.14,0H195q-7.38,0-14.77,0Z"/><path class="cls-2" d="M232,229.92c.67,0,.86.16.83.85-.06,1.43-.06,2.86,0,4.28,0,.69-.16.86-.84.86h0q-7.66,0-15.34,0H195.12q-7.47,0-14.94,0h0c-.75,0-1-.18-.93-.95.07-1.39.06-2.79,0-4.18,0-.7.16-.86.84-.86h0l23.11,0h20.56c2.74,0,5.49,0,8.23,0h0m0-1h0c-2.74,0-5.48,0-8.22,0H203.19l-23.1,0h0a1.91,1.91,0,0,0-1.43.48,1.84,1.84,0,0,0-.42,1.42c.06,1.47.06,2.81,0,4.09a1.88,1.88,0,0,0,.43,1.49,1.93,1.93,0,0,0,1.5.51q7.5,0,15,0h21.52q7.67,0,15.34,0h0a1.92,1.92,0,0,0,1.43-.49,1.83,1.83,0,0,0,.43-1.41c-.06-1.4-.06-2.81,0-4.19a1.8,1.8,0,0,0-.43-1.42,1.87,1.87,0,0,0-1.4-.48Z"/><path class="cls-2" d="M220.26,251.28H179.9a1.17,1.17,0,0,1-.9-.29,1.18,1.18,0,0,1-.27-.88c0-1.41.06-2.93,0-4.43a1.14,1.14,0,0,1,1.34-1.38c3.74,0,7.46,0,11.18,0H209c3.68,0,7.37,0,11,0h0a1.42,1.42,0,0,1,1.07.33,1.38,1.38,0,0,1,.28,1.05c-.06,1.52,0,3,0,4.43a1.18,1.18,0,0,1-.27.88,1.16,1.16,0,0,1-.89.29Z"/><path class="cls-2" d="M220.1,244.8c.67,0,.86.16.83.86-.06,1.48,0,3,0,4.46,0,.53-.15.66-.67.66H179.89c-.52,0-.67-.13-.66-.66,0-1.49.06-3,0-4.46,0-.7.16-.86.83-.86h0c3.72,0,7.44,0,11.16,0H209c3.68,0,7.36,0,11,0h0m0-1h0c-3.68,0-7.35,0-11,0H191.25c-3.72,0-7.44,0-11.16,0h0a1.94,1.94,0,0,0-1.43.48,1.83,1.83,0,0,0-.42,1.42c.06,1.5,0,3,0,4.4a1.49,1.49,0,0,0,1.66,1.68h40.37a1.71,1.71,0,0,0,1.26-.44,1.66,1.66,0,0,0,.41-1.24c0-1.39-.06-2.89,0-4.4a1.83,1.83,0,0,0-.42-1.42,1.91,1.91,0,0,0-1.41-.48Z"/><path class="cls-2" d="M226.21,251.12c-.21-.2-.21-.48-.21-1,0-1.49,0-3,0-4.46,0-.7,0-1,.22-1.19l.14-.15.26,0c.58,0,1.14,0,1.7,0H231c.55,0,1.11,0,1.67,0h.21l.21.17c.21.21.23.49.22,1.19,0,1.48,0,3,0,4.46,0,.52,0,.8-.21,1l-.14.15h-6.6Z"/><path class="cls-2" d="M232.71,244.8c.11,0,.14.16.13.86,0,1.48,0,3,0,4.46,0,.53,0,.66-.1.66H226.6c-.08,0-.1-.13-.1-.66,0-1.49,0-3,0-4.46,0-.7,0-.86.12-.86h0c.56,0,1.13,0,1.7,0H231c.56,0,1.12,0,1.68,0h0m0-1h0c-.55,0-1.1,0-1.65,0h-2.7c-.56,0-1.12,0-1.67,0h0a1.05,1.05,0,0,0-.79.32c-.37.37-.37.86-.36,1.54,0,1.49,0,3,0,4.46a1.73,1.73,0,0,0,.35,1.35l.29.3h7l.34-.32a1.77,1.77,0,0,0,.35-1.35c0-1.49,0-3,0-4.46,0-.68,0-1.17-.37-1.54a1,1,0,0,0-.76-.32Z"/></svg>