<svg id="Layer_1" data-name="Layer 1" xmlns="http://www.w3.org/2000/svg" viewBox="0 0 414 522"><defs><style>.cls-1{fill:#fceee4;}.cls-2{fill:none;stroke:#ea7a2f;stroke-linecap:round;stroke-linejoin:round;stroke-width:9px;}</style></defs><path d="M48.8,449.4V426.65h7.44a8.63,8.63,0,0,1,5.57,1.54,5.5,5.5,0,0,1,1.87,4.53,4.6,4.6,0,0,1-.91,2.82,5.8,5.8,0,0,1-2.47,1.9,5.26,5.26,0,0,1,2.92,2,5.63,5.63,0,0,1,1.07,3.44,6.05,6.05,0,0,1-2,4.81,8.17,8.17,0,0,1-5.6,1.75Zm3-13h4.54a4.71,4.71,0,0,0,3.14-1,3.3,3.3,0,0,0,1.18-2.68A3.25,3.25,0,0,0,59.57,430a5.37,5.37,0,0,0-3.33-.85H51.8Zm0,2.4V447h5a4.79,4.79,0,0,0,3.3-1.08,3.83,3.83,0,0,0,1.21-3q0-4.11-4.47-4.11Z"/><path d="M71.41,449.4H68.52v-24h2.89Z"/><path d="M75.27,440.79a10,10,0,0,1,1-4.46A7.28,7.28,0,0,1,79,433.26a7.39,7.39,0,0,1,4-1.07,7.1,7.1,0,0,1,5.58,2.39,9.19,9.19,0,0,1,2.13,6.36v.2a10.07,10.07,0,0,1-.94,4.43,7.16,7.16,0,0,1-2.7,3.05,7.51,7.51,0,0,1-4,1.1,7.11,7.11,0,0,1-5.57-2.39A9.14,9.14,0,0,1,75.27,441Zm2.91.35a7.21,7.21,0,0,0,1.3,4.51,4.42,4.42,0,0,0,7,0,7.94,7.94,0,0,0,1.29-4.84,7.2,7.2,0,0,0-1.32-4.5,4.39,4.39,0,0,0-7,0A7.9,7.9,0,0,0,78.18,441.14Z"/><path d="M101.07,447.36a4.19,4.19,0,0,0,2.7-.94,3.3,3.3,0,0,0,1.28-2.34h2.74a5.26,5.26,0,0,1-1,2.76,6.63,6.63,0,0,1-2.46,2.1,7.12,7.12,0,0,1-3.26.78,7,7,0,0,1-5.49-2.31,9.16,9.16,0,0,1-2-6.3v-.49a10.11,10.11,0,0,1,.91-4.39,6.88,6.88,0,0,1,2.6-3,7.35,7.35,0,0,1,4-1.06,6.75,6.75,0,0,1,4.73,1.7,6,6,0,0,1,2,4.42h-2.74a3.93,3.93,0,0,0-1.24-2.69,3.83,3.83,0,0,0-2.76-1.06,4,4,0,0,0-3.41,1.59,7.4,7.4,0,0,0-1.21,4.58v.55a7.31,7.31,0,0,0,1.2,4.5A4.07,4.07,0,0,0,101.07,447.36Z"/><path d="M115.76,441.58,114,443.47v5.93h-2.9v-24H114v14.52l1.54-1.86,5.27-5.56h3.51l-6.57,7.06L125,449.4h-3.39Z"/><path d="M133.73,447.36a4.19,4.19,0,0,0,2.7-.94,3.3,3.3,0,0,0,1.28-2.34h2.74a5.34,5.34,0,0,1-1,2.76,6.59,6.59,0,0,1-2.47,2.1,7.08,7.08,0,0,1-3.25.78,7,7,0,0,1-5.5-2.31,9.21,9.21,0,0,1-2-6.3v-.49a10.25,10.25,0,0,1,.9-4.39,6.94,6.94,0,0,1,2.6-3,7.39,7.39,0,0,1,4-1.06,6.77,6.77,0,0,1,4.73,1.7,6.12,6.12,0,0,1,2,4.42h-2.74a4,4,0,0,0-1.24-2.69,3.86,3.86,0,0,0-2.76-1.06,4,4,0,0,0-3.41,1.59,7.4,7.4,0,0,0-1.21,4.58v.55a7.31,7.31,0,0,0,1.2,4.5A4.07,4.07,0,0,0,133.73,447.36Z"/><path d="M146.59,434.54a6.13,6.13,0,0,1,5-2.35q5.35,0,5.4,6V449.4H154.1V438.22a4,4,0,0,0-.83-2.71,3.37,3.37,0,0,0-2.56-.87,4.17,4.17,0,0,0-2.47.75,5,5,0,0,0-1.65,2v12H143.7v-24h2.89Z"/><path d="M171.76,449.4a6,6,0,0,1-.41-1.78,6.44,6.44,0,0,1-4.81,2.1,5.91,5.91,0,0,1-4.1-1.42,4.55,4.55,0,0,1-1.6-3.58,4.76,4.76,0,0,1,2-4.1,9.42,9.42,0,0,1,5.65-1.47h2.81v-1.32a3.28,3.28,0,0,0-.9-2.42,3.65,3.65,0,0,0-2.67-.9,4.25,4.25,0,0,0-2.6.78,2.32,2.32,0,0,0-1,1.9h-2.91a4,4,0,0,1,.9-2.45,6.11,6.11,0,0,1,2.44-1.87,8.3,8.3,0,0,1,3.38-.68,6.66,6.66,0,0,1,4.58,1.46,5.3,5.3,0,0,1,1.72,4v7.78a9.41,9.41,0,0,0,.59,3.7v.25Zm-4.8-2.2a5.05,5.05,0,0,0,2.58-.7,4.24,4.24,0,0,0,1.76-1.83V441.2H169q-5.31,0-5.31,3.11a2.64,2.64,0,0,0,.9,2.13A3.49,3.49,0,0,0,167,447.2Z"/><path d="M178.74,428a1.68,1.68,0,0,1,.43-1.18,1.6,1.6,0,0,1,1.28-.49,1.63,1.63,0,0,1,1.28.49,1.65,1.65,0,0,1-1.28,2.82,1.66,1.66,0,0,1-1.28-.46A1.68,1.68,0,0,1,178.74,428Zm3.13,21.39H179V432.5h2.89Z"/><path d="M189.23,432.5l.09,2.12a6.17,6.17,0,0,1,5.06-2.43q5.37,0,5.41,6V449.4H196.9V438.22a3.9,3.9,0,0,0-.84-2.71,3.35,3.35,0,0,0-2.55-.87,4.17,4.17,0,0,0-2.47.75,5.07,5.07,0,0,0-1.66,2v12h-2.89V432.5Z"/><path d="M225.09,443.45h-9.54l-2.14,5.95h-3.09L219,426.65h2.62l8.71,22.75h-3.08ZM216.46,441h7.74l-3.88-10.64Z"/><path d="M242.79,444.92a2.15,2.15,0,0,0-.88-1.82,8.54,8.54,0,0,0-3.08-1.12,14.77,14.77,0,0,1-3.49-1.12,4.9,4.9,0,0,1-1.9-1.57,3.73,3.73,0,0,1-.62-2.15,4.4,4.4,0,0,1,1.76-3.52,6.9,6.9,0,0,1,4.49-1.43,7,7,0,0,1,4.66,1.48,4.7,4.7,0,0,1,1.79,3.8h-2.9a2.62,2.62,0,0,0-1-2.05,3.79,3.79,0,0,0-2.54-.86,4,4,0,0,0-2.47.69,2.18,2.18,0,0,0-.89,1.79,1.76,1.76,0,0,0,.83,1.58,9.9,9.9,0,0,0,3,1,16,16,0,0,1,3.51,1.15,5.16,5.16,0,0,1,2,1.62,4,4,0,0,1,.65,2.31,4.31,4.31,0,0,1-1.81,3.63,7.63,7.63,0,0,1-4.71,1.37,8.49,8.49,0,0,1-3.59-.72,5.88,5.88,0,0,1-2.45-2,4.9,4.9,0,0,1-.88-2.79h2.89a3,3,0,0,0,1.17,2.31,4.55,4.55,0,0,0,2.86.85,4.63,4.63,0,0,0,2.64-.67A2,2,0,0,0,242.79,444.92Z"/><path d="M259.29,444.92a2.15,2.15,0,0,0-.88-1.82,8.54,8.54,0,0,0-3.08-1.12,14.77,14.77,0,0,1-3.49-1.12,4.9,4.9,0,0,1-1.9-1.57,3.73,3.73,0,0,1-.62-2.15,4.4,4.4,0,0,1,1.76-3.52,6.9,6.9,0,0,1,4.49-1.43,7,7,0,0,1,4.66,1.48,4.7,4.7,0,0,1,1.79,3.8h-2.9a2.62,2.62,0,0,0-1-2.05,3.79,3.79,0,0,0-2.54-.86,4,4,0,0,0-2.47.69,2.18,2.18,0,0,0-.89,1.79,1.76,1.76,0,0,0,.83,1.58,9.9,9.9,0,0,0,3,1,16,16,0,0,1,3.51,1.15,5.16,5.16,0,0,1,2,1.62,4,4,0,0,1,.65,2.31,4.31,4.31,0,0,1-1.81,3.63,7.63,7.63,0,0,1-4.71,1.37,8.49,8.49,0,0,1-3.59-.72,5.88,5.88,0,0,1-2.45-2,4.9,4.9,0,0,1-.88-2.79h2.89a3,3,0,0,0,1.17,2.31,4.55,4.55,0,0,0,2.86.85,4.63,4.63,0,0,0,2.64-.67A2,2,0,0,0,259.29,444.92Z"/><path d="M265.18,440.79a9.84,9.84,0,0,1,1-4.46,7.21,7.21,0,0,1,2.72-3.07,7.36,7.36,0,0,1,4-1.07,7.12,7.12,0,0,1,5.59,2.39,9.19,9.19,0,0,1,2.13,6.36v.2a10.07,10.07,0,0,1-.95,4.43,7.16,7.16,0,0,1-2.7,3.05,7.48,7.48,0,0,1-4,1.1,7.12,7.12,0,0,1-5.57-2.39,9.18,9.18,0,0,1-2.13-6.33Zm2.91.35a7.21,7.21,0,0,0,1.3,4.51,4.41,4.41,0,0,0,7,0,7.87,7.87,0,0,0,1.3-4.84,7.2,7.2,0,0,0-1.32-4.5,4.2,4.2,0,0,0-3.51-1.73,4.15,4.15,0,0,0-3.45,1.7A7.83,7.83,0,0,0,268.09,441.14Z"/><path d="M291,447.36a4.19,4.19,0,0,0,2.7-.94,3.3,3.3,0,0,0,1.28-2.34h2.74a5.34,5.34,0,0,1-1,2.76,6.59,6.59,0,0,1-2.47,2.1,7.08,7.08,0,0,1-3.25.78,7,7,0,0,1-5.5-2.31,9.16,9.16,0,0,1-2-6.3v-.49a10.25,10.25,0,0,1,.9-4.39,6.94,6.94,0,0,1,2.6-3,7.39,7.39,0,0,1,4-1.06,6.77,6.77,0,0,1,4.73,1.7,6.12,6.12,0,0,1,2,4.42H295a4,4,0,0,0-1.24-2.69,3.86,3.86,0,0,0-2.76-1.06,4,4,0,0,0-3.41,1.59,7.4,7.4,0,0,0-1.21,4.58v.55a7.31,7.31,0,0,0,1.2,4.5A4.07,4.07,0,0,0,291,447.36Z"/><path d="M301,428a1.68,1.68,0,0,1,.43-1.18,1.59,1.59,0,0,1,1.27-.49,1.64,1.64,0,0,1,1.29.49,1.65,1.65,0,0,1-1.29,2.82,1.65,1.65,0,0,1-1.27-.46A1.68,1.68,0,0,1,301,428Zm3.13,21.39H301.2V432.5h2.89Z"/><path d="M319.15,449.4a6,6,0,0,1-.41-1.78,6.44,6.44,0,0,1-4.81,2.1,5.93,5.93,0,0,1-4.1-1.42,4.55,4.55,0,0,1-1.6-3.58,4.79,4.79,0,0,1,2-4.1,9.45,9.45,0,0,1,5.65-1.47h2.82v-1.32a3.28,3.28,0,0,0-.91-2.42,3.65,3.65,0,0,0-2.67-.9,4.25,4.25,0,0,0-2.6.78,2.34,2.34,0,0,0-1,1.9h-2.91a4,4,0,0,1,.9-2.45,6.11,6.11,0,0,1,2.44-1.87,8.3,8.3,0,0,1,3.38-.68,6.66,6.66,0,0,1,4.58,1.46,5.3,5.3,0,0,1,1.72,4v7.78a9.41,9.41,0,0,0,.59,3.7v.25Zm-4.8-2.2a5.05,5.05,0,0,0,2.58-.7,4.32,4.32,0,0,0,1.77-1.83V441.2h-2.27q-5.31,0-5.31,3.11a2.64,2.64,0,0,0,.9,2.13A3.49,3.49,0,0,0,314.35,447.2Z"/><path d="M330,428.4v4.1h3.16v2.23H330v10.5a2.37,2.37,0,0,0,.42,1.53,1.8,1.8,0,0,0,1.44.5,7.23,7.23,0,0,0,1.37-.18v2.33a8.73,8.73,0,0,1-2.22.31,3.58,3.58,0,0,1-2.92-1.18,5.06,5.06,0,0,1-1-3.32V434.73h-3.08V432.5h3.08v-4.1Z"/><path d="M343.59,449.72a7.41,7.41,0,0,1-5.6-2.26,8.38,8.38,0,0,1-2.15-6v-.53a10.11,10.11,0,0,1,1-4.49,7.52,7.52,0,0,1,2.68-3.1,6.8,6.8,0,0,1,3.75-1.11,6.33,6.33,0,0,1,5.12,2.17,9.4,9.4,0,0,1,1.83,6.22v1.2H338.73a6,6,0,0,0,1.46,4,4.6,4.6,0,0,0,3.55,1.54,5,5,0,0,0,2.6-.63,6.74,6.74,0,0,0,1.86-1.65l1.76,1.37A7.1,7.1,0,0,1,343.59,449.72Zm-.36-15.16a3.88,3.88,0,0,0-2.94,1.27,6.22,6.22,0,0,0-1.47,3.57h8.47v-.21a5.5,5.5,0,0,0-1.19-3.42A3.62,3.62,0,0,0,343.23,434.56Z"/><path d="M363.37,444.92a2.13,2.13,0,0,0-.89-1.82,8.4,8.4,0,0,0-3.07-1.12,14.77,14.77,0,0,1-3.49-1.12,4.9,4.9,0,0,1-1.9-1.57,3.66,3.66,0,0,1-.62-2.15,4.37,4.37,0,0,1,1.76-3.52,6.9,6.9,0,0,1,4.49-1.43,7.06,7.06,0,0,1,4.66,1.48,4.73,4.73,0,0,1,1.79,3.8h-2.9a2.62,2.62,0,0,0-1-2.05,3.79,3.79,0,0,0-2.54-.86,3.94,3.94,0,0,0-2.47.69,2.18,2.18,0,0,0-.89,1.79,1.74,1.74,0,0,0,.83,1.58,9.9,9.9,0,0,0,3,1,16,16,0,0,1,3.51,1.15,5.16,5.16,0,0,1,2,1.62,4,4,0,0,1,.65,2.31,4.34,4.34,0,0,1-1.81,3.63,7.63,7.63,0,0,1-4.71,1.37,8.49,8.49,0,0,1-3.59-.72,5.88,5.88,0,0,1-2.45-2,4.83,4.83,0,0,1-.88-2.79h2.89a3,3,0,0,0,1.17,2.31,4.53,4.53,0,0,0,2.86.85,4.63,4.63,0,0,0,2.64-.67A2,2,0,0,0,363.37,444.92Z"/><circle class="cls-1" cx="207" cy="221" r="177"/><polygon class="cls-2" points="209.85 105.7 180.67 122.55 180.67 151.93 209.85 168.78 239.04 151.93 239.04 122.55 209.85 105.7"/><line class="cls-2" x1="209.86" y1="105.7" x2="209.86" y2="189.59"/><polyline class="cls-2" points="180.67 122.55 209.85 143.73 239.04 122.55"/><polygon class="cls-2" points="209.85 189.46 180.67 206.31 180.67 235.69 209.85 252.54 239.04 235.69 239.04 206.31 209.85 189.46"/><line class="cls-2" x1="209.86" y1="189.46" x2="210.17" y2="273.35"/><polyline class="cls-2" points="262.21 189.59 209.85 227.49 153.06 186.42"/><polygon class="cls-2" points="122.29 237.68 93.1 254.53 93.1 283.92 122.29 300.77 151.48 283.92 151.48 254.53 122.29 237.68"/><line class="cls-2" x1="122.29" y1="197.84" x2="122.29" y2="300.77"/><polyline class="cls-2" points="179.71 234.01 122.29 275.71 93.1 254.53"/><polygon class="cls-2" points="122.29 140.6 93.1 157.45 93.1 186.83 122.29 203.68 151.48 186.83 151.48 157.45 122.29 140.6"/><line class="cls-2" x1="122.29" y1="140.6" x2="122.29" y2="203.68"/><polyline class="cls-2" points="93.1 157.45 122.29 178.63 151.48 157.45"/><polygon class="cls-2" points="291.71 236.41 262.52 253.27 262.52 282.65 291.71 299.5 320.9 282.65 320.9 253.27 291.71 236.41"/><line class="cls-2" x1="292.03" y1="200.38" x2="291.71" y2="299.5"/><polyline class="cls-2" points="320.9 253.27 291.71 274.44 239.36 235.91"/><polygon class="cls-2" points="291.71 140.6 262.52 157.45 262.52 186.83 291.71 203.68 320.9 186.83 320.9 157.45 291.71 140.6"/><line class="cls-2" x1="291.71" y1="140.6" x2="291.71" y2="203.68"/><polyline class="cls-2" points="320.9 157.45 291.71 178.63 262.52 157.45"/><polygon class="cls-2" points="209.85 273.22 180.67 290.07 180.67 319.45 209.85 336.3 239.04 319.45 239.04 290.07 209.85 273.22"/><line class="cls-2" x1="209.86" y1="273.22" x2="209.86" y2="336.3"/><polyline class="cls-2" points="239.04 290.07 209.85 311.25 180.67 290.07"/></svg>